<svg width="197" height="12" viewBox="0 0 197 12" fill="none" xmlns="http://www.w3.org/2000/svg">
<path d="M4.33762 4.29562C8.43827 3.46035 11.2777 4.10969 15.1058 4.10187C23.5354 4.08389 34.6356 3.48631 43.245 3.23016C49.7657 3.03587 56.3939 2.87761 62.8774 2.71981C63.2104 2.71162 63.4111 2.78219 63.5619 2.77857C64.9766 2.74445 67.3605 2.60297 68.7665 2.57109C71.724 2.50335 76.8879 2.34004 79.5932 2.33487C80.7525 2.33211 81.9318 2.31141 82.3826 2.48123C82.8021 2.47868 83.0256 2.30747 83.1345 2.29543C83.1358 2.29555 83.1371 2.29568 83.1383 2.29581C83.489 2.25808 84.3948 2.34837 84.5912 2.3357C84.6208 2.33375 84.4355 2.21945 84.9162 2.24213C84.9589 2.24405 84.922 2.32629 85.3253 2.31623C85.431 2.31354 86.7727 2.15184 87.1543 2.13378C88.4467 2.07326 91.4853 2.0888 93.0375 2.04625C93.2726 2.04003 93.4066 1.98898 93.6543 1.9816C93.7823 1.97774 93.9752 2.02423 94.0145 2.02292C94.187 2.01653 94.9314 1.76285 94.6741 2.23177C95.4562 2.18203 95.2211 2.03539 95.2364 1.93575C96.0784 1.8995 96.5116 2.10604 96.7266 1.8698C100.909 1.78996 105.136 1.71437 109.332 1.64709C109.332 1.60948 109.333 1.57186 109.333 1.53424C110.577 1.65632 110.979 1.39345 111.698 1.59575C112.138 1.53808 112.575 1.48054 113.01 1.42314C120.369 1.3626 127.791 1.18362 135.114 1.06331C138.922 1.00126 142.704 0.95618 146.498 0.953932C146.974 0.953723 147.095 1.03354 147.866 1.03465C148.696 1.03583 149.938 0.945604 151.038 0.951885C152.045 0.957162 153.465 1.04222 154.591 1.06477C154.84 1.06963 155.019 1.02075 155.047 1.02131C155.21 1.02492 155.217 1.10522 155.375 1.10913C155.562 1.11362 155.789 1.05665 156.016 1.06291C156.857 1.08558 157.738 1.07751 157.839 1.08039C158.353 1.09536 158.461 1.17566 158.504 1.17714C159.066 1.19547 158.856 1.12143 158.995 1.12775C159.706 1.16111 160.23 1.34683 161.218 1.19689C161.19 1.26192 161.162 1.32696 161.134 1.39201C161.882 1.44415 161.391 1.25984 161.545 1.23141C161.594 1.22009 163.255 1.27873 163.366 1.28527C163.792 1.30701 163.817 1.395 163.852 1.39703C163.953 1.40219 165.048 1.33214 165.615 1.42537C166.291 1.5357 165.487 1.68914 165.655 1.72744C165.685 1.73383 166.39 1.73709 166.479 1.79561C166.581 1.8585 165.977 1.83846 165.985 1.86384C165.994 1.88104 166.986 2.03559 166.792 2.11239C166.65 2.19034 165.257 2.04143 164.986 2.07356C164.939 2.07871 165.025 2.18372 164.983 2.18631C164.822 2.19293 161.671 2.11974 161.528 2.10232C161.688 2.05892 161.853 2.01571 162.022 1.97266C161.797 1.96305 161.586 1.95389 161.372 1.94477C161.673 1.9135 161.99 1.88281 162.303 1.85237C161.829 1.45655 160.472 1.8197 160.4 2.01071C160.374 2.09894 161.218 2.34353 160.426 2.46146C160.546 2.4865 160.666 2.51157 160.785 2.53667C161.032 2.50403 161.277 2.47151 161.52 2.43912C161.359 2.41217 161.197 2.38528 161.034 2.35844C161.095 2.33295 161.155 2.30746 161.216 2.28199C161.665 2.24825 162.14 2.21563 162.603 2.18342C162.839 2.20861 162.788 2.28626 162.95 2.3053C164.965 2.54712 163.665 2.26996 164.983 2.34067C165.169 2.38822 165.352 2.43578 165.547 2.48385C165.483 2.30694 166.085 2.43416 166.786 2.38138C166.701 2.43528 166.615 2.4892 166.529 2.54314C167.562 2.54393 169.645 2.90956 169.093 2.57585C169.33 2.61172 169.565 2.64772 169.796 2.68384C169.993 2.64067 170.197 2.59801 170.403 2.55559C170.683 2.57334 170.959 2.59128 171.231 2.60939C171.231 2.63709 171.231 2.66478 171.231 2.69248C171.014 2.68287 170.795 2.67337 170.573 2.66399C170.736 2.75538 170.897 2.84683 171.057 2.93835C171.22 2.93157 171.376 2.92464 171.54 2.9182C170.869 2.80777 171.766 2.71813 171.997 2.61797C172.579 2.60454 172.922 2.76695 173.125 2.78389C173.223 2.79149 174.294 2.5941 173.864 2.85139C174.408 2.84686 174.973 2.84526 175.518 2.84446C175.736 2.87929 175.951 2.91424 176.163 2.94928C175.693 3.04996 177.018 3.29247 176.032 3.2834C175.279 3.27678 175.11 3.1453 174.758 3.1255C174.443 3.10792 174.251 3.17942 173.917 3.16479C171.598 3.06242 169.701 2.96818 167.496 2.85544C167.051 2.83288 166.662 2.86067 166.371 2.84592C166.042 2.82917 166.459 2.73897 166.037 2.75106C165.591 2.76405 165.489 2.84537 165.37 2.84358C165.294 2.84232 165.075 2.76033 164.864 2.75449C163.995 2.72986 162.717 2.7728 162.594 2.7698C162.443 2.76403 160.003 2.6464 159.866 2.63292C159.803 2.62507 159.937 2.34784 159.398 2.63653C159.231 2.63923 159.063 2.642 158.894 2.64482C158.922 2.58944 158.95 2.53406 158.978 2.47869C157.976 2.67461 158.296 2.56099 157.349 2.56442C155.032 2.57169 151.612 2.4992 149.091 2.51454C148.514 2.51785 148.32 2.58435 147.651 2.58865C147.027 2.59205 145.403 2.39453 145.758 2.67045C144.392 2.43345 144.145 2.84732 143.459 2.59236C143.377 2.63009 143.295 2.66784 143.213 2.7056C142.47 2.54801 142.24 2.69022 141.412 2.7142C141.056 2.72471 141.458 2.55144 140.749 2.74595C140.616 2.73262 140.481 2.71931 140.347 2.70603C140.378 2.66449 140.409 2.62295 140.44 2.58141C139.658 2.62038 139.603 2.59945 139.695 2.75346C139.314 2.72802 138.929 2.70279 138.542 2.67777C138.494 2.72894 138.446 2.78011 138.398 2.83128C138.607 2.91885 147.235 2.73365 148.463 2.69938C149.891 2.81522 152.735 2.6859 153.872 2.72397C154.336 2.7389 154.54 2.85547 155.201 2.87592C155.841 2.89612 156.721 2.80245 157.065 2.80333C158.248 2.79935 163.851 2.93321 160.031 3.00212C160.141 3.06011 160.252 3.11813 160.361 3.17617C161.886 3.0147 161.312 3.12074 162.587 3.16864C163.11 3.18855 164.376 3.09607 164.3 3.34873C163.291 3.36925 162.279 3.26468 161.417 3.25061C161.336 3.24917 160.327 3.34524 159.793 3.30456C159.332 3.26786 159.661 3.03051 158.637 3.28632C157.871 3.0085 157.436 3.24411 157.238 3.26706C156.894 3.30699 156.858 3.17529 156.511 3.15573C156.132 3.13423 155.865 3.21842 155.813 3.2184C155.314 3.21335 152.603 3.20278 152.491 3.1503C152.599 3.12772 152.707 3.10517 152.815 3.08263C152.12 3.04052 152.262 3.1758 152.078 3.19071C151.94 3.1894 151.802 3.18814 151.663 3.1869C151.719 3.15936 151.774 3.13184 151.829 3.10431C150.994 3.10588 151.62 3.20541 150.464 3.19794C149.727 3.19329 148.943 3.08543 148.869 3.09316C148.848 3.09537 149.085 3.16747 148.778 3.17647C148.288 3.1912 147.422 3.18881 147.323 3.09141C147.076 3.10515 147.097 3.20054 147.064 3.20271C146.902 3.21126 144.481 3.24705 144.02 3.25497C142.815 3.2742 141.426 3.26072 140.129 3.2856C139.995 3.28812 140.08 3.22634 139.945 3.22924C139.73 3.23371 138.603 3.33831 138.431 3.34664C137.998 3.36667 136.928 3.33829 136.749 3.36792C136.725 3.3721 137.087 3.45137 136.665 3.48104C136.195 3.51398 136.447 3.40029 136.421 3.39942C135.92 3.38448 135.511 3.40035 135.14 3.4221C134.813 3.44186 134.516 3.46654 134.206 3.47723C133.997 3.48442 133.607 3.40527 133.307 3.43363C133.273 3.43686 133.342 3.51339 133.308 3.51761C132.856 3.56365 132.427 3.4255 132.228 3.41875C131.747 3.40221 132.012 3.50477 131.985 3.50586C131.673 3.5133 131.249 3.48066 130.767 3.49233C128.593 3.54491 126.848 3.57844 124.557 3.61024C124.271 3.61426 123.929 3.54545 123.885 3.54612C123.748 3.54905 123.789 3.63616 123.394 3.64112C122.557 3.65133 121.788 3.66954 120.974 3.68301C120.809 3.68573 120.738 3.60568 120.612 3.60628C120.192 3.60898 118.741 3.8501 118.71 3.58559C117.885 3.83652 117.326 3.64536 116.65 3.66133C115.027 3.69916 112.553 3.79979 110.944 3.80525C110.611 3.80612 110.453 3.74172 110.267 3.74222C109.936 3.74273 108.015 3.8245 107.911 3.81632C107.712 3.80035 107.82 3.49849 106.824 3.78249C106.234 3.81486 106.301 3.69051 106.178 3.68676C105.224 3.65987 104.293 3.95641 104.463 3.70118C103.337 3.7964 102.641 3.95228 102.178 3.7288C102.187 3.8432 101.666 3.9247 101.032 3.89678C101.674 3.68838 101.595 3.5671 103.15 3.56439C103.174 3.56436 103.13 3.64833 103.154 3.6483C103.376 3.64849 103.834 3.59556 104.22 3.59076C104.603 3.58606 104.392 3.6478 104.545 3.64303C104.685 3.63854 104.679 3.55939 104.881 3.55342C105.538 3.53462 106.115 3.49916 106.486 3.48906C106.719 3.48276 106.981 3.54632 107.162 3.54212C107.854 3.52536 109.368 3.43624 110.254 3.42408C110.439 3.42171 110.364 3.50158 110.769 3.49903C110.816 3.49873 110.987 3.41339 111.34 3.38869C111.698 3.36388 111.98 3.39818 112.211 3.38472C112.403 3.37348 112.322 3.30282 112.716 3.28973C113.047 3.27833 116.756 3.2529 116.962 3.2609C117.252 3.2717 117.392 3.37063 117.568 3.35471C117.598 3.35144 117.649 3.25219 117.756 3.24302C119.527 3.09093 123.497 3.1514 125.505 3.11817C128.822 3.06221 131.921 2.98322 135.134 2.92204C136.087 2.90413 137.033 2.88806 137.978 2.87484C138.053 2.85711 138.129 2.83938 138.207 2.82164C137.774 2.82462 137.351 2.82773 136.918 2.83116C136.914 2.78497 136.911 2.73877 136.908 2.69258C136.322 2.69083 136.4 2.7995 136.417 2.86527C136.199 2.83941 135.98 2.81362 135.76 2.7879C135.691 2.84765 135.451 2.87314 135.134 2.88204C134.607 2.89715 133.857 2.86282 133.383 2.86873C132.896 2.87456 132.311 2.94338 132.051 2.942C131.518 2.93906 131.53 2.83957 131.488 2.83852C131.417 2.83719 130.67 2.93487 130.122 2.93925C129.318 2.94588 129.204 2.79479 128.124 2.94074C126.722 2.88287 125.14 2.9486 123.628 2.98801C123.919 2.84179 122.543 2.99947 121.93 3.00856C118.176 3.06271 113.577 3.09785 109.773 3.12818C109.285 3.13214 108.913 3.0575 108.639 3.06651C108.491 3.07131 108.428 3.17074 108.222 3.16253C108.185 3.16088 108.158 3.06984 107.773 3.06494C106.831 3.05182 104.472 3.26074 103.859 3.09983C100.636 3.20481 97.3669 3.31483 94.1348 3.42694C94.0524 3.39165 93.97 3.35637 93.8876 3.3211C93.276 3.52843 90.8312 3.48105 89.6485 3.52225C87.5425 3.59528 84.8983 3.72805 83.0531 3.78654C82.6574 3.79909 82.331 3.75401 81.9552 3.76575C81.7935 3.77089 81.5942 3.84693 81.4255 3.85208C79.5222 3.91138 76.972 3.91239 75.0499 3.97031C70.7277 4.10032 66.6285 4.2126 62.245 4.3497C47.4545 4.81321 32.7476 5.39487 18.0859 5.83566C17.8895 5.84157 17.8966 5.76039 17.7443 5.76484C16.8461 5.79046 14.837 5.92342 13.8223 5.95325C13.0136 5.97712 11.7251 5.89592 11.4507 6.02962C14.3307 6.12309 17.3687 6.0087 20.3635 5.96299C20.5765 5.9597 20.6055 6.0357 20.6318 6.03624C21.1175 6.04702 20.8079 5.95122 21.5105 5.92335C21.7458 5.914 23.921 6.08829 23.655 5.85249C24.1773 5.93314 27.8443 5.86207 28.5465 5.80682C28.7604 5.78997 28.6064 5.72255 28.6488 5.7175C28.8326 5.6955 28.9202 5.79253 29.0858 5.78971C29.5277 5.7815 30.647 5.66402 30.86 5.65766C31.3504 5.64256 32.8209 5.67608 33.4654 5.63603C34.0586 5.59931 33.9445 5.49866 34.4578 5.47244C34.8622 5.45206 34.4245 5.554 35.3284 5.55124C35.7768 5.54969 37.3379 5.43647 37.7169 5.42425C38.0955 5.41205 38.5211 5.46077 39.0465 5.43906C39.8035 5.40792 41.4452 5.32045 42.2108 5.27593C42.2566 5.27334 42.3655 5.18868 42.4783 5.18676C42.7119 5.18269 42.645 5.28508 42.8216 5.2896C42.9992 5.29401 46.0681 5.18389 46.5852 5.16866C46.9431 5.15785 47.1882 5.09037 47.3858 5.08463C47.541 5.08027 47.5592 5.16319 47.7189 5.15907C47.7682 5.1575 48.1856 5.07175 48.6043 5.0602C49.0006 5.04934 50.5018 5.07094 50.6748 5.06616C50.7877 5.06289 50.6621 5.0075 50.9958 4.99841C51.2998 4.99029 51.5018 5.06099 51.6749 5.05668C52.0758 5.04658 52.525 4.96679 52.954 4.95303C54.1859 4.9136 54.1245 5.01101 54.1986 5.01178C54.4034 5.014 54.4826 4.92411 54.5497 4.92022C54.8329 4.90404 55.5259 4.86629 55.7776 4.85507C56.0912 4.84108 56.2267 4.91995 56.5596 4.90989C56.8058 4.90219 57.3109 4.80551 57.8801 4.78394C59.1665 4.73481 60.679 4.67295 61.9411 4.63744C62.3177 4.62676 62.3777 4.70076 62.4928 4.69921C63.0974 4.69115 63.4322 4.59616 63.6043 4.59203C64.8293 4.56228 67.0231 4.629 68.1642 4.6061C68.6299 4.59659 70.6469 4.47489 71.8014 4.45176C71.9328 4.44902 71.8116 4.51206 71.9574 4.49844C72.3061 4.46582 72.27 4.34583 72.4471 4.34426C72.5326 4.34387 72.7293 4.40631 72.9779 4.40578C74.2653 4.40309 75.1474 4.32428 75.7405 4.31065C81.3908 4.18118 87.1539 4.05136 92.4301 3.92185C93.0219 3.90724 93.7519 3.8159 94.6388 3.86259C94.667 3.89946 94.6952 3.93633 94.7234 3.97321C94.7534 3.93546 94.7834 3.89772 94.8134 3.85998C95.8105 3.81393 96.196 3.75637 97.2283 3.77692C97.3172 3.77858 97.5923 3.94322 97.7541 3.72585C98.7749 3.85432 98.2135 3.71287 98.9656 3.67943C99.7118 3.64619 100.456 3.67517 101.191 3.66767C101.597 3.73396 99.9064 3.95221 99.796 3.9545C99.6207 3.95821 99.4357 3.85685 99.2664 3.85548C98.7648 3.85127 98.2798 3.94774 98.1644 3.85605C97.5154 3.97264 98.3253 3.90201 98.2461 3.99415C97.8107 3.96795 97.3739 3.94184 96.9358 3.91582C96.7152 4.22785 94.3074 3.89078 94.4805 4.11975C94.2885 4.07805 94.0963 4.03637 93.9038 3.99471C93.0742 4.30937 92.5666 4.11662 91.446 4.05948C91.5271 4.09475 91.6083 4.13003 91.6893 4.16531C91.6675 4.1815 90.6874 4.26767 91.0341 4.09885C90.0318 4.33599 90.0646 3.9855 89.163 4.26272C88.6231 4.30983 88.9453 4.15421 87.9746 4.18328C87.3956 4.20053 86.7006 4.29642 86.0609 4.31949C85.914 4.32455 85.8477 4.24138 85.7168 4.24501C85.586 4.24868 85.5244 4.33373 85.3658 4.34024C85.0381 4.35386 84.6104 4.30728 84.4049 4.31866C84.2207 4.32862 83.9594 4.40943 83.5142 4.43349C81.9766 4.5176 82.4387 4.39968 82.1945 4.37102C81.932 4.34068 81.7482 4.48419 81.2252 4.483C81.1727 4.4828 81.3059 4.39282 81.1356 4.40104C80.9981 4.40761 80.9318 4.50317 80.476 4.53363C80.2903 4.54585 77.4815 4.6466 77.0534 4.66084C76.3997 4.68228 74.9187 4.64615 74.2462 4.66647C73.9855 4.67413 73.7087 4.75748 73.431 4.76515C72.5132 4.79043 71.0251 4.8281 69.8584 4.85925C68.8108 4.88704 66.9542 4.77681 66.3783 4.94414C64.8976 5.00832 64.5406 4.89115 64.4279 4.8928C64.1268 4.89716 63.99 4.98619 63.61 5.0017C58.6871 5.20068 52.203 5.34698 47.5363 5.50193C36.7271 5.86102 25.8493 6.26318 14.9964 6.58674C14.9685 6.62527 14.9406 6.66381 14.9128 6.70234C16.1975 6.68421 17.7071 6.69983 18.9723 6.67314C20.6655 6.63713 23.1666 6.39837 24.4146 6.61462C23.9107 6.65367 23.0911 6.58197 23.1096 6.71358C24.0066 6.6936 24.9089 6.67348 25.8084 6.6535C25.7796 6.59338 25.7507 6.53325 25.7219 6.47313C26.6605 6.42466 27.6204 6.4066 28.5603 6.36719C28.7235 6.36043 28.6061 6.30882 28.7483 6.3039C28.9075 6.29851 28.8014 6.35839 28.8312 6.35787C29.2351 6.34526 29.355 6.28427 29.4043 6.28349C29.5307 6.28162 29.4343 6.3391 29.799 6.34244C30.4755 6.34884 30.9538 6.18894 30.8032 6.43431C31.021 6.42722 31.2388 6.42013 31.4566 6.41305C31.5108 6.34583 31.5651 6.2786 31.6193 6.21138C32.9671 6.43185 33.5661 5.94883 34.3215 6.29221C34.5642 6.22816 34.8069 6.16412 35.0494 6.10009C35.1893 6.16102 35.3291 6.22196 35.4689 6.2829C35.4939 6.22591 35.5189 6.16892 35.5439 6.11193C36.8622 6.11071 38.2528 5.99841 39.5166 5.96424C40.3942 5.94054 40.6048 5.95596 41.3803 5.92687C43.1037 5.86206 41.3961 6.02822 42.8311 6.10268C42.7544 6.03625 42.6778 5.96982 42.6011 5.9034C42.837 5.87061 43.0736 5.8378 43.3114 5.80496C43.4791 5.85578 43.6468 5.9066 43.8144 5.95743C44.5405 5.64286 45.0234 5.86269 45.1233 5.85951C45.204 5.85643 45.4762 5.67233 46.348 5.79319C45.9809 5.56502 47.0093 5.77077 47.0908 5.7696C47.1674 5.76813 48.1621 5.68305 48.5679 5.67248C48.8866 5.6641 49.5672 5.69421 50.0404 5.67676C50.4581 5.66134 50.4131 5.58135 50.4436 5.57954C50.9572 5.55659 50.6372 5.62993 51.0086 5.62134C51.3799 5.61275 51.6653 5.5344 51.7456 5.53808C51.7859 5.54011 51.6537 5.62011 51.8382 5.62163C52.3303 5.62614 53.2343 5.53139 53.8022 5.51561C54.004 5.50991 54.2601 5.56625 54.4846 5.56121C54.8287 5.55327 54.9866 5.46289 55.1863 5.4592C55.2558 5.45815 55.7031 5.57621 56.2522 5.53887C56.3573 5.53153 56.653 5.243 57.0769 5.62561C57.1069 5.56899 57.1369 5.51237 57.1669 5.45575C59.0189 5.26048 59.5448 5.69676 60.3534 5.27038C61.6934 5.27406 60.7793 5.45853 60.927 5.47796C61.0227 5.49016 61.4559 5.43388 61.5058 5.4348C61.5916 5.43697 61.5784 5.48757 61.6722 5.48441C63.3903 5.42254 62.624 5.35123 63.1657 5.27463C64.4512 5.09252 65.4654 5.37904 63.2208 5.35209C63.2216 5.38007 63.2225 5.40805 63.2233 5.43603C63.776 5.39238 65.1748 5.36264 64.712 5.51873C64.3508 5.64149 61.0154 5.67032 62.9079 5.76953C63.3372 5.79195 63.556 5.68017 64.3016 5.85457C64.7907 5.85041 64.8535 5.59318 65.5171 5.67555C65.4059 5.58985 65.2946 5.50416 65.1832 5.41846C66.0747 5.27533 67.2096 5.39686 67.9005 5.32623C68.1364 5.30212 68.9729 4.85243 68.7876 5.28253C69.1827 5.24418 71.0491 5.26677 71.4 5.21836C71.4832 5.20672 71.5873 4.97753 72.7982 5.0207C72.883 5.04653 72.9677 5.07236 73.0524 5.0982C71.9505 5.21299 73.9028 5.23919 73.3796 5.46909C73.1973 5.37804 72.3194 5.34513 72.1764 5.30088C71.9327 5.22464 72.6481 5.09592 71.7332 5.15231C71.1665 5.52757 72.812 5.31392 72.5696 5.66149C73.7645 5.46735 73.8868 5.61543 74.1579 5.61377C75.3124 5.60557 76.0567 5.54781 77.1508 5.55583C77.4167 5.47817 75.4272 5.43502 75.1794 5.4725C76.0813 5.19835 74.5143 5.23285 73.869 5.39901C73.8119 5.32579 73.7547 5.25257 73.6976 5.17935C74.548 5.19496 75.3879 5.19126 76.2354 5.10516C76.2915 5.13154 76.3475 5.15791 76.4036 5.18429C76.2145 5.23196 76.0252 5.27963 75.8358 5.32732C76.5441 5.37577 76.1149 5.16982 77.0594 5.33378C77.086 5.24867 77.1126 5.16355 77.1392 5.07844C78.0422 5.0803 78.9264 5.08284 79.8383 5.08476C80.3057 4.9022 82.0387 4.91599 81.7276 5.1438C82.4255 5.1395 81.5614 5.04742 82.2131 4.9757C82.4968 4.94456 83.0508 4.92245 83.189 4.97749C83.1363 5.18747 82.3076 5.23671 82.0597 5.38693C82.2063 5.4287 86.0916 5.17114 85.7496 5.4247C86.0595 5.44542 85.9143 5.32382 86.4701 5.27629C88.0153 5.14383 90.4754 5.32534 91.7082 4.98099C90.2343 4.84708 89.8006 5.04251 88.6635 5.08078C87.9234 5.10532 83.5312 5.25694 84.505 5.00947C84.343 5.042 84.1809 5.07454 84.0186 5.10709C83.8519 5.04614 83.6851 4.98521 83.5181 4.92428C83.9832 4.90178 84.4471 4.87935 84.9099 4.85702C85.0222 4.91934 85.1345 4.98166 85.2467 5.04399C85.2964 4.99588 85.346 4.94778 85.3956 4.89967C85.59 4.88499 85.7841 4.87032 85.9781 4.85566C85.9251 4.9133 85.872 4.97095 85.819 5.02859C86.1188 5.02988 86.418 5.03121 86.7168 5.03258C86.6343 4.95979 86.5519 4.88701 86.4693 4.81423C87.8748 4.75661 87.396 4.81683 88.1883 4.9355C88.7764 4.9338 87.7806 4.81668 89.0214 4.74622C90.4598 4.66466 89.5253 4.91918 91.3781 4.82033C91.4038 4.7822 91.4294 4.74406 91.4551 4.70593C91.8588 4.73256 92.2797 4.75879 92.6907 4.78532C92.635 4.74024 92.5793 4.69515 92.5237 4.65007C93.3751 4.64544 94.5357 4.52611 94.8189 4.7014C93.9627 4.63586 93.9783 4.95447 94.2026 5.0072C94.6501 5.11464 101.462 4.82865 102.774 4.79018C104.438 4.73943 105.749 4.81038 107.264 4.61811C106.234 4.51283 102.552 4.70689 101.864 4.6352C101.795 4.62817 101.808 4.33547 101.372 4.67518C99.9281 4.65512 98.2546 4.79051 96.4583 4.82732C96.5109 4.74179 96.5635 4.65626 96.616 4.57073C97.722 4.7212 98.7202 4.30277 98.5866 4.63315C98.8037 4.62764 99.0205 4.62216 99.237 4.6167C99.2355 4.5604 99.2341 4.50411 99.2327 4.44781C99.5595 4.43957 99.8823 4.43146 100.216 4.42311C100.217 4.47941 100.219 4.5357 100.22 4.592C100.495 4.58514 100.768 4.57832 101.041 4.57154C101.068 4.5147 101.095 4.45786 101.122 4.40102C101.949 4.49694 104.693 4.11855 103.491 4.48311C103.866 4.47402 104.26 4.46453 104.643 4.45536C104.64 4.41422 104.638 4.37309 104.636 4.33195C104.801 4.32245 104.966 4.31297 105.131 4.30351C105.078 4.34207 105.024 4.38062 104.971 4.41918C105.726 4.33435 106.443 4.51375 106.932 4.37337C106.607 4.35279 106.281 4.33228 105.954 4.31183C106.583 4.35042 107.718 4.21322 107.827 4.21044C108.145 4.20254 108.314 4.28191 108.657 4.27829C108.966 4.27483 108.922 4.21187 108.98 4.2128C110.643 4.24023 110.016 4.60087 110.779 4.17376C110.862 4.22791 110.945 4.28207 111.028 4.33623C111.135 4.28712 111.243 4.23801 111.351 4.18891C111.844 4.18242 112.34 4.17597 112.831 4.16975C112.666 4.10332 112.5 4.03692 112.334 3.97053C113.072 3.92323 113.417 4.05627 113.488 4.05795C113.689 4.06181 113.779 3.9718 113.841 3.97031C116.818 3.9153 115.018 4.03064 116.523 4.33055C117.054 4.18988 116.511 4.07072 116.432 3.94023C117.145 3.98771 117.365 3.94669 118.108 3.93928C118.302 3.93745 118.51 4.00463 118.632 4.00321C118.736 4.002 119.074 3.91967 119.332 3.9144C119.762 3.90553 120.332 3.93979 120.913 3.92783C121.392 3.91768 122.88 3.83696 123.92 3.81848C124.362 3.81084 124.26 3.87597 124.374 3.87414C124.421 3.87333 124.763 3.79161 125.043 3.7866C127.363 3.74589 129.748 3.75785 132.046 3.72677C133.089 3.71275 134.127 3.67626 135.142 3.64885C135.772 3.63225 136.393 3.61892 137.003 3.61553C137.35 3.61371 137.167 3.67112 137.318 3.6717C137.37 3.67175 137.433 3.57388 137.964 3.60837C138.156 3.62082 137.935 3.69068 138.125 3.69245C138.22 3.69329 138.261 3.60763 138.813 3.5838C139.815 3.54047 140.338 3.65092 140.426 3.64692C140.591 3.63932 140.542 3.5691 140.76 3.56521C141.85 3.54609 142.763 3.52987 143.708 3.52064C144.185 3.51486 147.268 3.49641 147.453 3.51039C147.835 3.53878 147.48 3.68576 147.968 3.68115C148.104 3.64402 148.24 3.60691 148.376 3.56983C148.161 3.5412 147.944 3.51265 147.727 3.48418C148.325 3.53191 148.992 3.4662 149.449 3.46999C149.534 3.47073 150.293 3.53983 150.672 3.53422C150.51 3.56121 150.347 3.58825 150.184 3.61534C150.241 3.63915 150.299 3.66296 150.356 3.68677C151.109 3.6538 151.95 3.65906 152.733 3.66947C153.015 3.67315 152.92 3.7298 153.204 3.73385C154.893 3.75958 154.467 3.5172 156.076 3.98215C155.528 3.93442 153.536 3.9732 153.248 3.95683C153.051 3.94482 152.275 3.56157 152.558 3.95151C150.942 3.94018 152.337 3.73379 150.834 3.77318C150.864 3.82067 150.893 3.86817 150.923 3.91566C150.405 3.94322 150.016 3.96586 149.695 3.88132C149.576 4.11041 147.81 3.97205 146.817 3.98836C145.408 4.01061 143.781 4.07102 142.402 4.08749C141.919 4.09311 141.641 4.00464 141.58 4.00525C141.49 4.00638 141.238 4.08666 141.058 4.0883C140.414 4.09386 138.39 3.97561 137.89 4.19934C141.815 4.16548 145.753 4.14997 149.69 4.16157C149.196 4.05068 153.182 4.05873 153.366 4.06808C153.549 4.0743 153.394 4.14867 153.448 4.15367C153.866 4.18931 154.225 4.08295 154.356 4.08414C154.457 4.08507 154.66 4.13828 155.013 4.14066C155.077 4.14114 155.096 4.08696 155.165 4.0875C155.617 4.0921 156.088 4.09812 156.555 4.10358C156.584 4.10446 156.701 4.18531 156.818 4.18694C156.936 4.18843 157.052 4.11061 157.082 4.11075C157.449 4.11605 158.083 4.17666 158.445 4.18284C158.568 4.18472 158.484 4.12525 158.622 4.12796C159.045 4.13609 158.906 4.24761 159.423 4.22698C159.598 4.22009 159.581 4.13268 159.92 4.15017C160.162 4.1627 160.132 4.31736 160.171 4.32369C160.225 4.33136 161.052 4.22459 161.312 4.33167C160.73 4.58787 161.937 4.35854 161.893 4.24473C162.223 4.28037 162.55 4.31623 162.872 4.35231C162.983 4.32627 163.093 4.30026 163.203 4.27427C164.517 4.43573 165.314 4.38041 166.601 4.46091C166.652 4.46412 167.755 4.56496 167.699 4.60366C167.036 4.64984 166.4 4.63278 165.986 4.49196C165.285 4.71542 165.286 4.52002 164.181 4.52271C163.807 4.52391 163.777 4.58957 163.734 4.5893C162.314 4.58481 159.972 4.56775 159.027 4.35955C158.756 4.40747 159.724 4.4444 159.348 4.4767C159.149 4.4895 154.139 4.49028 155.739 4.28646C155.573 4.29082 155.413 4.2953 155.249 4.29979C155.086 4.50877 154.263 4.45284 154.358 4.24382C154.279 4.28608 154.2 4.32835 154.121 4.37063C153.965 4.40563 153.78 4.42354 153.519 4.43303C152.559 4.46357 146.739 4.37503 146.408 4.40994C146.401 4.45975 146.394 4.50956 146.387 4.55937C148.971 4.61408 151.468 4.4977 154.269 4.6649C154.187 4.61746 154.105 4.57003 154.023 4.52262C155.147 4.59766 156.266 4.67532 157.377 4.75584C156.197 4.82382 154.31 4.8754 153.065 4.79728C152.847 4.78331 153.007 4.71931 152.957 4.71106C152.826 4.68966 152.686 4.8016 152.208 4.80963C151.725 4.81738 150.529 4.73184 150.423 4.73388C150.214 4.73768 149.643 4.86507 149.277 4.86257C148.796 4.85919 149.118 4.77991 149.022 4.778C148.62 4.76926 148.285 4.80845 147.976 4.80222C147.526 4.79283 146.562 4.6522 146.24 4.85928C146.568 4.86843 146.903 4.87774 147.23 4.88724C145.453 4.96129 144.051 4.70077 142.333 4.91251C141.938 5.16461 143.377 5.12406 142.16 5.23658C142.382 5.23191 142.603 5.2273 142.822 5.22278C142.874 5.17015 142.925 5.11752 142.976 5.0649C143.354 5.10076 143.723 5.13685 144.116 5.17308C144.006 5.1267 143.895 5.08035 143.784 5.03402C145.167 4.99396 146.483 4.94519 146.98 5.1963C147.008 5.13559 147.036 5.07488 147.064 5.01417C148.317 5.08736 150.203 4.83598 149.85 5.17278C149.91 5.15506 149.97 5.13735 150.029 5.11965C150.784 5.19141 150.461 5.0506 150.744 5.03595C150.812 5.03147 152.306 5.1115 151.644 5.20825C153.092 5.29328 152.642 4.97534 153.037 4.96407C153.949 5.12647 155.617 4.90882 154.918 5.14901C155.054 5.15963 155.189 5.17028 155.324 5.18096C155.758 4.99103 156.226 5.21636 156.709 5.29598C156.874 5.30245 157.039 5.30897 157.202 5.31554C157.313 5.25157 157.423 5.18764 157.533 5.12372C159.09 5.45763 158.613 4.59942 159.306 5.32619C159.196 5.36715 159.085 5.40813 158.975 5.44914C158.713 5.46523 158.449 5.48147 158.183 5.49784C159.247 5.5326 160.305 5.57009 161.354 5.61059C162.698 5.83947 163.462 5.6396 164.945 5.8394C165.084 5.82426 165.216 5.80899 165.362 5.7942C165.212 5.95203 164.666 5.91214 165.685 6.01478C165.77 6.13185 165.076 6.12615 164.78 6.03016C164.707 6.00666 165.337 5.93646 164.631 5.9137C164.143 5.89848 165.034 6.05922 163.56 5.97008C163.615 5.99945 163.669 6.02882 163.723 6.05821C163.561 6.05326 163.404 6.04854 163.25 6.04395C163.114 5.97582 162.977 5.90773 162.838 5.83968C162.48 5.92494 162.263 6.0507 161.44 6.00551C161.66 5.96956 161.367 5.83316 160.961 5.82729C160.96 5.87415 160.959 5.92102 160.958 5.96788C159.973 5.97895 160.299 5.84761 159.484 5.94062C159.404 5.90196 159.323 5.86332 159.243 5.82469C158.801 5.97022 157.132 6.05085 157.443 5.82517C156.988 6.0425 156.009 5.92965 155.642 5.74687C155.615 5.79312 155.587 5.83937 155.559 5.88562C155.371 5.89303 155.181 5.9005 154.99 5.90804C154.884 5.87882 154.777 5.84963 154.67 5.82046C154.534 5.84732 154.397 5.87422 154.259 5.90115C154.177 5.85371 154.094 5.80627 154.011 5.75885C153.791 5.81296 153.557 5.86706 153.346 5.92144C153.215 5.88317 153.083 5.84493 152.951 5.80672C152.94 5.90383 151.612 5.91709 151.228 5.85161C151.117 5.8794 151.01 5.90722 150.901 5.93505C150.848 5.88843 150.795 5.84181 150.742 5.7952C150.66 5.83197 150.579 5.86874 150.497 5.90553C150.309 5.86768 150.12 5.82989 149.931 5.79216C149.153 6.01716 149.124 5.81785 148.945 5.81882C148.616 5.82054 147.517 5.96182 147.325 5.95461C147.138 5.94718 147.047 5.86557 146.895 5.85792C144.417 5.73169 145.441 5.9505 144.943 5.9858C144.674 6.00529 144.482 5.92966 144.242 5.93879C143.81 5.9536 141.808 6.06321 141.674 6.05451C141.5 6.04123 141.907 5.6799 141.343 5.77558C141.316 5.9684 140.138 5.78115 140.689 6.04658C140.206 6.02601 139.718 6.00578 139.225 5.9859C139.284 6.21402 138.668 6.07158 138.005 6.08997C137.246 6.11099 135.649 6.23358 135.169 6.13879C135.077 6.11968 135.029 6.09176 135.042 6.05244C134.822 6.10871 134.602 6.16504 134.38 6.22144C132.852 6.16502 131.348 6.26189 129.826 6.28647C125.31 6.35953 120.409 6.39793 115.916 6.44441C115.699 6.44662 115.728 6.3694 115.571 6.37096C114.748 6.37939 112.648 6.4783 111.481 6.4873C111.118 6.48996 110.939 6.41922 110.824 6.41835C110.432 6.41497 110.526 6.51132 110.345 6.51255C110.062 6.5143 108.541 6.4574 108.011 6.46013C107.748 6.46147 107.448 6.54664 107.147 6.52951C107.121 6.52815 107.167 6.44645 107.145 6.44555C106.597 6.44848 106.928 6.51045 106.742 6.51112C105.422 6.51582 103.969 6.54901 102.543 6.56729C102.186 6.57181 101.635 6.52853 101.326 6.53084C101.208 6.53187 101.421 6.58776 101.014 6.59281C100.874 6.59455 100.824 6.51623 100.666 6.515C99.9832 6.51034 99.7647 6.77149 99.1826 6.58055C98.0749 6.62195 96.0932 6.73857 95.0863 6.76635C94.8453 6.77288 94.7266 6.729 94.4965 6.73587C94.3332 6.74071 94.0474 6.82101 93.7919 6.82863C93.5362 6.83621 93.1306 6.7776 92.6366 6.79326C92.1149 6.80966 91.4728 6.86803 91.3584 6.87085C91.2184 6.8746 91.1508 6.78886 91.0107 6.79373C90.5877 6.80788 89.4513 6.92465 88.9003 6.94899C88.3089 6.97496 87.9509 6.94233 87.7479 6.94874C87.5605 6.95505 87.3481 7.03478 87.263 7.03777C87.1312 7.04252 87.0977 6.95709 86.9302 6.96243C86.6565 6.97138 86.3755 7.03344 85.9636 7.04629C78.5331 7.27908 71.2438 7.44631 64.0172 7.60323C63.2113 7.62072 62.7578 7.69509 61.564 7.70403C61.0828 7.70751 61.2832 7.61226 60.9102 7.64056C60.7439 7.65328 60.7882 7.722 60.5777 7.73186C59.6475 7.7751 58.5566 7.74368 58.1509 7.75737C57.9901 7.76268 57.8088 7.84789 57.4786 7.85928C55.0325 7.9441 52.1227 8.01282 49.4892 8.10984C48.0861 8.16146 45.981 8.26883 44.3741 8.32548C39.9464 8.48163 35.1726 8.61741 31.1362 8.75667C25.0346 8.96675 18.9643 9.23999 12.8723 9.35402C15.7262 9.45234 19.6055 9.30844 22.7777 9.22525C31.9389 8.98441 41.688 8.55621 51.0768 8.26495C54.3418 8.16352 58.4663 8.0307 62.0362 7.96606C62.199 7.96305 62.5344 7.89157 62.8858 7.88733C62.9607 7.88655 63.8883 7.96993 64.1988 7.96163C63.8984 7.77227 65.1207 7.91203 65.4952 7.89592C65.9633 7.8755 66.9628 7.74608 68.0754 7.76878C69.0857 7.78922 68.8093 7.87388 68.8652 7.87699C69.2224 7.89724 69.3428 7.7706 69.6149 7.75004C70.7286 7.66669 76.4829 7.56878 78.0835 7.52769C78.4965 7.51691 78.5102 7.59473 78.6031 7.59234C78.8495 7.58576 79.1951 7.49859 79.5955 7.48764C80.3139 7.46818 81.1396 7.51849 81.5323 7.50764C82.4695 7.48184 84.2502 7.34464 85.4761 7.30893C85.8198 7.29888 85.8009 7.38079 85.9562 7.3762C86.6385 7.3558 88.4162 7.21104 89.2718 7.18702C90.6557 7.14801 92.0635 7.16286 93.4774 7.09873C93.5675 7.13266 93.6575 7.16659 93.7475 7.20053C93.8869 7.15875 94.0261 7.11699 94.1653 7.07523C96.521 7.04233 98.9457 6.8985 101.313 6.84522C101.587 6.83894 102.932 6.87539 103.154 6.87034C103.339 6.86583 103.52 6.77152 103.794 6.77814C104.183 6.78712 103.821 6.96709 104.458 6.90279C104.629 6.88544 104.462 6.81614 104.805 6.78507C104.922 6.77451 107.112 6.6931 107.226 6.69569C107.421 6.69969 107.598 6.85264 107.648 6.85486C107.912 6.86647 107.9 6.74623 108.078 6.73113C108.604 6.68608 109.289 6.75157 109.374 6.74788C110.397 6.70227 112.308 6.5638 113.391 6.59765C113.539 6.60239 113.523 6.69249 113.55 6.69485C113.718 6.70983 113.821 6.60546 113.98 6.59971C114.83 6.57001 116.199 6.61041 117.066 6.61046C117.166 6.61035 117.375 6.55697 117.553 6.55818C118.556 6.56582 118.231 6.65122 118.289 6.65345C118.425 6.65913 118.652 6.56766 119.022 6.55509C119.972 6.5221 121.734 6.50158 122.742 6.49046C123.497 6.48234 123.485 6.58227 123.535 6.58334C123.64 6.58508 123.932 6.50041 124.422 6.48299C125.364 6.4492 125.256 6.52941 125.641 6.5196C125.674 6.51906 125.616 6.4434 126.054 6.42834C126.91 6.39894 128.743 6.4459 129.662 6.42896C130.009 6.42258 130.089 6.3476 130.441 6.34126C131.005 6.33073 132.236 6.39449 132.35 6.39293C132.378 6.39257 132.44 6.30681 132.606 6.30472C132.788 6.30244 132.967 6.34395 133.102 6.34202C133.874 6.3312 135.17 6.16864 134.813 6.47587C134.932 6.43725 135.052 6.39865 135.171 6.36007C135.296 6.32114 135.421 6.28223 135.545 6.24335C137.164 6.24129 138.706 6.19794 140.29 6.1722C140.645 6.16648 140.928 6.22217 141.24 6.21757C141.55 6.21274 142.879 6.11127 143.095 6.10882C143.462 6.10353 145.759 6.08766 146.016 6.09482C146.551 6.10715 147.103 6.23246 147.322 6.20802C147.501 6.18836 147.336 6.11765 147.676 6.09783C148.262 6.06344 149.254 6.15624 149.442 6.15545C149.519 6.15513 149.377 6.09948 150.098 6.09789C150.484 6.09699 150.689 6.15853 150.828 6.15885C150.875 6.1588 150.792 6.0598 151.573 6.07699C152.111 6.08917 152.334 6.16659 152.39 6.1672C152.473 6.16824 152.675 6.08854 153.006 6.09373C153.777 6.10597 155.224 6.21216 155.96 6.22797C156.106 6.23109 156.06 6.13256 156.636 6.14862C157.046 6.16026 156.973 6.2372 157.125 6.2423C157.369 6.25034 157.716 6.15967 158.269 6.17106C158.944 6.17905 163.952 6.38274 164.223 6.42188C164.397 6.44372 164.599 6.45031 164.683 6.49493C164.608 6.53341 164.534 6.57191 164.459 6.61042C163.693 6.4477 163.998 6.61855 163.792 6.6236C163.479 6.63018 162.399 6.58374 162.116 6.61389C162.018 6.62479 162.241 6.71607 161.715 6.74923C161.169 6.78522 160.928 6.62659 160.704 6.83265C159.919 6.58378 159.149 6.81878 160.067 6.90125C160.587 6.94181 165.527 7.1418 166.555 7.19563C167.378 7.23186 168.93 7.225 169.921 7.28303C170.532 7.31693 171.974 7.39498 171.913 7.50464C172.436 7.54413 171.887 7.40597 171.998 7.39582C172.224 7.37313 173.859 7.53519 174.173 7.55131C175.7 7.62191 177.64 7.62651 179.1 7.88654C179.03 7.91097 178.96 7.93541 178.889 7.95985C178.548 7.98628 177.011 7.79559 176.834 7.92904C179.088 8.08308 181.322 8.27358 183.569 8.51526C183.556 8.43688 184.617 8.52347 185.465 8.62681C185.983 8.68934 186.402 8.75391 186.45 8.78072C186.395 8.8336 186.339 8.88648 186.282 8.93934C185.925 8.84476 185.671 8.79048 185.45 8.75571C184.727 8.6417 184.604 8.77828 183.805 8.56784C183.376 8.51916 183.488 8.62987 183.28 8.62649C181.163 8.59553 183.27 8.42005 181.649 8.34859C182.116 8.53578 180.803 8.4621 180.199 8.42941C180.076 8.42042 178.296 8.24032 178.088 8.22927C176.901 8.15096 174.866 8.09949 173.681 7.9587C172.755 7.89914 172.242 7.97494 171.382 7.95813C170.741 7.94649 170.932 7.88422 170.629 7.86991C169.992 7.84017 169.767 8.04775 169.38 7.7301C168.956 7.75076 168.496 7.77088 168.079 7.79343C168.081 7.74658 168.083 7.69974 168.084 7.6529C167.818 7.64322 167.547 7.63371 167.273 7.62437C167.191 7.66831 167.108 7.71226 167.025 7.75623C166.166 7.66396 166.533 7.56327 166.376 7.42537C166.193 7.41042 166.007 7.39554 165.82 7.38075C165.672 7.47819 165.523 7.57567 165.373 7.67321C164.557 7.64094 163.694 7.60992 162.885 7.58243C162.833 7.53446 162.78 7.4865 162.728 7.43855C162.725 7.48521 162.722 7.53187 162.719 7.57852C161.288 7.55465 159.893 7.53778 158.49 7.52563C158.119 7.59412 160.36 7.68818 160.543 7.69736C161.48 7.73814 164.008 7.72383 164.017 7.89202C164.608 7.78221 166.392 7.86589 166.927 8.03387C166.107 7.99767 165.238 7.96268 164.42 7.93159C164.445 7.98812 164.471 8.04466 164.496 8.1012C163.451 7.84802 163.304 7.85678 162.223 8.04479C162.223 7.96992 162.224 7.89505 162.225 7.82018C161.447 8.06267 160.162 7.59657 160.105 7.91721C159.69 7.88358 159.312 7.85103 158.911 7.81847C158.055 7.84537 159.361 8.1073 156.001 7.96775C155.766 7.95833 155.805 7.87684 155.464 7.8788C155.363 7.87952 154.802 7.99207 153.676 7.97042C153.5 7.96703 153.486 7.89588 153.311 7.88552C152.907 7.8609 152.08 7.99619 152.456 7.76965C150.81 7.69308 151.475 7.88523 150.977 7.95732C150.643 8.0054 150.711 7.87025 150.419 7.89981C150.055 7.93674 150.334 8.07337 148.857 8.00705C149.024 7.99811 149.19 7.98921 149.355 7.98036C149.272 7.94304 149.189 7.90573 149.105 7.86843C148.267 7.95572 148.359 7.826 147.967 8.03405C147.371 7.94051 146.828 7.93294 146.008 7.95073C144.42 7.98637 145.232 8.2089 143.394 7.9123C143.102 7.95588 142.808 7.99959 142.512 8.04344C142.024 7.95645 142.42 7.84266 141.686 7.82394C142.266 8.04142 140.7 7.96957 140.46 8.16814C140.433 8.12144 140.405 8.07474 140.378 8.02805C140.217 8.0291 140.056 8.03019 139.894 8.03132C139.894 8.06892 139.893 8.10652 139.893 8.14412C139.677 8.11747 139.46 8.09089 139.242 8.06438C139.079 8.10288 138.915 8.14143 138.75 8.18001C138.481 8.10354 138.197 8.02729 137.939 7.9509C137.773 7.94696 137.607 7.94305 137.441 7.93919C137.494 7.9947 137.547 8.05021 137.6 8.10573C137.387 8.08891 137.172 8.07216 136.956 8.05548C137.207 8.14503 137.053 8.25404 136.378 8.25784C135.818 8.26125 136.452 8.06281 135.24 8.15534C135.226 8.15638 135.211 8.16071 135.191 8.1674C135.086 8.20305 134.841 8.30524 133.894 8.33406C132.539 8.3756 133.195 8.26878 132.953 8.26826C132.905 8.26828 132.487 8.34229 132.095 8.35724C131.879 8.36565 131.669 8.31286 131.64 8.31338C131.506 8.3177 131.468 8.39681 131.281 8.40215C130.808 8.41525 130.167 8.38568 129.695 8.39642C129.48 8.40119 129.278 8.45072 129.182 8.4527C129.032 8.45544 128.844 8.38709 128.698 8.38955C128.157 8.39908 127.329 8.64801 127.067 8.32433C126.546 8.63397 125.412 8.28817 125.505 8.48886C124.115 8.43468 120.335 8.75219 120.445 8.41091C119.649 8.7165 119.715 8.50493 119.378 8.51578C119 8.5279 119.197 8.58042 118.896 8.58375C118.203 8.59134 117.547 8.58019 116.853 8.59313C116.961 8.54439 117.069 8.49565 117.176 8.44693C116.449 8.4467 116.703 8.54989 115.957 8.58604C114.58 8.65263 115.165 8.55412 114.959 8.43634C115.017 8.55286 113.419 8.56839 113.252 8.55658C113.154 8.54926 113.58 8.38814 112.594 8.45849C112.649 8.50401 112.704 8.54954 112.759 8.59507C112.307 8.54089 111.082 8.64898 110.882 8.63777C110.787 8.63253 110.275 8.26716 109.817 8.57568C109.76 8.53024 109.703 8.48481 109.645 8.43938C109.131 8.50719 108.613 8.57517 108.094 8.64332C108.009 8.56112 107.923 8.47892 107.838 8.39672C107.672 8.40057 107.513 8.40426 107.35 8.40805C107.459 8.48023 107.569 8.55242 107.678 8.62461C106.677 8.61393 105.443 8.76107 105.227 8.51421C105.011 8.56608 104.794 8.61799 104.577 8.66992C104.433 8.58953 104.289 8.50916 104.145 8.42879C103.142 8.47417 103.133 8.53049 102.45 8.63654C102.475 8.57048 102.5 8.50441 102.525 8.43835C102.024 8.54252 101.101 8.65086 100.365 8.68084C100.011 8.69501 99.4219 8.61966 99.3397 8.62991C99.2581 8.64057 98.4565 9.01522 98.3601 8.7109C97.1666 8.87717 96.6302 8.75232 96.1403 8.76837C95.8208 8.77893 95.6844 8.85611 95.3289 8.87298C94.8216 8.89719 94.3076 8.87509 94.0131 8.88791C93.8445 8.89545 93.8149 8.96805 93.6986 8.97337C93.1483 8.99886 93.4693 8.91699 92.8878 8.93719C92.8341 8.93944 92.411 9.03827 91.9292 9.03988C91.6632 9.04075 90.975 8.96068 90.914 8.96257C90.6447 8.97152 90.8663 9.16249 89.9379 8.96008C89.9657 8.99678 89.9935 9.03348 90.0213 9.07017C88.8811 9.19605 88.6934 9.03429 88.4614 9.02905C88.4318 9.02891 88.1537 9.10106 87.9857 9.09677C87.701 9.08937 87.5877 9.00412 87.5255 9.00194C87.3074 8.99439 86.5735 9.05348 86.0886 8.9815C86.1979 9.2299 84.5069 9.36635 84.1204 9.0925C83.8212 9.15705 83.5184 9.22172 83.2243 9.28617C83.0883 9.24311 82.9522 9.20005 82.816 9.157C82.7353 9.20601 82.6545 9.25501 82.5738 9.30402C82.136 9.21348 81.6972 9.12301 81.2574 9.03261C81.2326 9.13638 81.2076 9.24016 81.1828 9.34393C81.0601 9.3357 80.9373 9.32747 80.8145 9.31924C80.7166 9.24013 80.6185 9.16103 80.5205 9.08193C80.3677 9.10192 80.2147 9.12191 80.0617 9.14192C80.0254 9.20223 79.9891 9.26253 79.9528 9.32284C79.129 9.41477 79.5345 8.83777 77.9899 9.37925C77.7458 9.33957 77.5013 9.2999 77.2566 9.26026C76.9883 9.49546 76.4686 9.37283 76.0521 9.41052C75.7585 9.43711 75.7773 9.52691 75.3761 9.54063C74.9744 9.55433 74.9861 9.4676 74.9548 9.46795C74.6294 9.47215 74.3884 9.5554 74.1497 9.54722C74.1137 9.54602 74.0211 9.44613 73.7173 9.44855C73.4133 9.45101 73.2334 9.56543 72.7794 9.55824C72.5466 9.55468 72.4769 9.47029 72.2702 9.46875C71.2856 9.46064 70.3017 9.92771 69.5556 9.43073C69.3925 9.50138 68.1966 9.76746 67.6792 9.7698C66.875 9.77285 67.1814 9.66177 66.8611 9.65277C66.8154 9.65133 66.5694 9.69314 65.896 9.70732C65.7762 9.70982 65.8057 9.76644 65.7885 9.76772C65.0085 9.79017 63.4857 9.79107 62.621 9.80934C62.544 9.81085 62.1438 9.98337 61.4526 9.78893C60.4511 9.97889 58.536 9.69569 57.2021 9.9772C57.0156 9.98806 56.7909 9.9377 56.7092 9.94219C56.006 9.98182 56.271 10.1476 54.6688 9.94271C54.8007 10.0274 54.4302 10.1191 53.902 10.1289C53.1075 10.1436 53.6666 9.9605 53.0282 9.99404C53.0297 10.0407 53.0311 10.0874 53.0326 10.1341C51.5589 10.0546 51.2817 10.2632 49.8095 10.3107C49.2804 10.3277 48.4938 10.249 48.3672 10.2528C48.3186 10.2546 47.7406 10.3856 47.6867 10.3881C47.3767 10.4014 47.1998 10.355 46.9319 10.3632C46.0465 10.3902 44.9912 10.5704 45.1744 10.2985C44.932 10.3624 44.6895 10.4263 44.4469 10.4902C43.5139 10.2358 42.8352 10.6492 42.6347 10.3796C42.4721 10.4418 42.3094 10.504 42.1467 10.5662C38.1909 10.6641 34.2321 10.7633 30.2793 10.8632C30.1248 10.9571 28.3966 10.9819 28.3093 10.971C27.9017 10.9217 28.3239 10.7142 27.4974 10.7854C27.4086 10.8732 27.3197 10.9609 27.2308 11.0487C26.1904 11.1103 26.6885 11.0096 26.2755 10.9656C26.104 10.9817 26.1616 11.0456 25.9291 11.058C24.6656 11.1256 22.0842 11.2133 20.7034 11.2641C20.4251 11.2744 20.4651 11.2115 20.3786 11.2142C20.1412 11.2226 19.6737 11.3155 19.1977 11.3312C16.2539 11.4275 12.0752 11.5217 9.10601 11.5548C8.90447 11.5569 8.87711 11.4844 8.74108 11.4852C8.55257 11.4867 8.13376 11.5599 7.93541 11.5603C7.74857 11.5608 7.62717 11.5091 7.42722 11.5092C6.51239 11.509 5.28549 11.6438 4.30261 11.5119C4.21994 11.5008 3.18569 11.2395 3.16185 11.2209C3.02208 11.1105 3.92659 10.8998 2.4255 10.7812C3.75726 10.5902 3.3312 10.3446 1.59057 10.2754C2.46042 10.2138 3.33022 10.1523 4.19987 10.0908C4.20011 10.06 4.20034 10.0292 4.20058 9.99842C3.40289 9.87229 2.6147 9.84763 1.40865 9.87347C1.4453 9.84376 1.48196 9.81404 1.51861 9.78433C2.57872 9.60684 3.8622 9.53802 4.6664 9.31712C3.47277 9.21285 2.27882 9.10859 1.0848 9.00434C1.14346 8.97993 1.20212 8.95551 1.26077 8.9311C1.82895 8.85391 3.07299 8.77846 3.54452 8.70842C5.34551 8.44129 1.95707 8.6057 2.50973 8.4608C4.41838 8.40216 6.32851 8.34349 8.23718 8.28491C8.30141 8.18952 0.948426 8.17544 1.01484 7.89183C1.61423 7.85309 2.21361 7.81435 2.81295 7.77561C2.54318 7.71305 2.27341 7.6505 2.00363 7.58794C2.07656 7.56289 2.1495 7.53784 2.22243 7.51279C3.23295 7.4238 4.24282 7.33483 5.25353 7.24585C2.178 7.40348 0.746338 7.41039 -0.00952218 6.87247C0.0734665 6.85539 0.156455 6.83831 0.239444 6.82123C0.918087 7.15093 4.06071 6.93295 5.73144 6.80745C5.38687 6.71569 3.91693 6.84404 3.60376 6.79239C3.51499 6.77754 3.82012 6.69584 3.61462 6.66599C3.07759 6.58847 0.797886 6.54134 1.12472 6.41379C1.33552 6.3318 4.99243 6.10781 5.70776 6.09204C4.02851 6.01284 2.30322 6.03099 0.618433 5.92297C1.67074 5.65974 2.60029 5.34945 4.53403 5.27303C5.11976 5.1338 1.01926 5.10356 0.921946 5.04138C1.62842 4.94779 2.33488 4.85421 3.04126 4.76064C2.44244 4.79919 1.84357 4.83775 1.24467 4.87631C1.24214 4.85294 1.23961 4.82958 1.23708 4.80621C2.78677 4.64606 4.19961 4.3995 5.97851 4.35416C5.91717 4.23212 4.85335 4.27968 4.33762 4.29562ZM174.376 8.28235C174.409 8.38706 173.753 8.33284 173.403 8.3123C173.456 8.33389 173.509 8.35549 173.561 8.37709C172.79 8.31458 171.359 8.20689 171.286 8.40384C170.74 8.40374 170.989 8.2415 170.814 8.21384C170.753 8.20312 170.002 8.2712 169.448 8.12618C169.312 8.12121 169.175 8.11629 169.038 8.11141C169.009 8.17575 168.98 8.2401 168.95 8.30444C168.761 8.21762 168.57 8.13089 168.377 8.04424C170.377 8.10447 172.381 8.18154 174.373 8.28218C174.374 8.28223 174.375 8.28229 174.376 8.28235ZM154.409 7.78583C153.663 7.74185 152.558 7.67603 152.78 7.85678C153.236 7.85048 153.698 7.84463 154.168 7.83933C154.249 7.82148 154.329 7.80365 154.409 7.78583ZM81.3384 8.86277C80.7191 8.70389 80.1566 8.87256 79.2 8.86815C79.2023 8.90537 79.2046 8.94259 79.2069 8.97981C79.5953 8.87912 80.6291 8.90911 81.3384 8.86277ZM192.159 9.54247C192.28 9.58162 192.395 9.62027 192.513 9.6605C191.982 9.7506 191.926 9.59523 191.351 9.50777C191.316 9.50263 191.319 9.54995 191.307 9.54802C191.162 9.52475 191.049 9.44872 190.917 9.42685C190.67 9.38632 190.46 9.40733 190.013 9.33546C189.672 9.28088 189.675 9.19313 189.556 9.17752C189.452 9.163 188.381 9.2535 187.722 9.06391C186.477 8.68479 191.871 9.39508 192.159 9.54247ZM195.363 10.6744C195.255 10.631 195.149 10.5891 195.044 10.5486C195.411 10.5497 194.762 10.3065 194.298 10.1593C194.355 10.0341 195.316 10.4409 195.805 10.6195C195.654 10.6355 195.507 10.6539 195.363 10.6744ZM179.989 7.8899C180.483 7.91903 180.396 8.07435 180.368 8.12013C180.202 8.10563 180.05 8.09256 179.891 8.07908C179.923 8.01601 179.956 7.95296 179.989 7.8899ZM183.763 8.19831C183.586 8.28894 182.509 8.22423 181.986 8.18336C181.965 8.18142 182.105 8.13427 181.747 8.10537C181.642 8.09609 180.541 8.21563 180.801 7.98954C181.79 8.05023 182.774 8.1196 183.761 8.19815C183.762 8.1982 183.762 8.19825 183.763 8.19831ZM184.85 8.38479C184.645 8.39599 184.438 8.40736 184.225 8.41849C184.12 8.35494 184.027 8.29278 183.927 8.22989C184.155 8.24169 184.399 8.25573 184.63 8.26886C184.704 8.30753 184.776 8.34602 184.85 8.38479ZM27.9746 9.64869C28.0249 9.70225 28.0753 9.75581 28.1256 9.80937C28.3148 9.83702 29.2213 9.56708 28.9302 9.53006C28.6117 9.5696 28.2932 9.60914 27.9746 9.64869ZM24.1021 9.65959C23.9111 9.63801 23.72 9.61643 23.5289 9.59485C23.3132 9.69555 23.0975 9.79627 22.8817 9.89698C23.8337 9.92889 24.8492 9.96838 24.677 9.69792C24.8951 9.69077 25.1131 9.68363 25.3311 9.6765C25.1512 9.79655 25.1773 9.83331 25.75 9.88702C25.8696 9.72424 26.4619 9.7858 27.135 9.72888C26.6443 9.73563 26.1532 9.74241 25.6619 9.74921C25.661 9.72123 25.6601 9.69325 25.6592 9.66527C26.7537 9.63958 25.3882 9.50658 24.6781 9.64121C24.6207 9.6058 24.5632 9.57039 24.5058 9.53498C24.3713 9.57652 24.2364 9.61806 24.1021 9.65959ZM103.155 7.3563C103.019 7.33143 102.884 7.30657 102.748 7.28172C102.235 7.66112 103.288 7.28731 104.055 7.55915C103.796 7.34484 104.966 7.32591 105.032 7.30958C104.896 7.23859 104.76 7.1676 104.624 7.09663C104.129 7.1832 103.639 7.26978 103.155 7.3563ZM99.3051 7.19873C99.7781 7.36968 97.4802 7.43906 96.6963 7.41913C96.5066 7.4141 96.1658 7.32246 96.0289 7.3387C95.9463 7.37796 95.8656 7.41717 95.7849 7.45639C95.6857 7.33062 94.1849 7.51403 93.5886 7.59888C93.5311 7.55367 93.4737 7.50846 93.4162 7.46326C93.199 7.48756 92.9815 7.51188 92.7637 7.53622C92.7899 7.48896 92.8161 7.4417 92.8423 7.39444C92.6787 7.45479 92.5149 7.51515 92.3509 7.57553C91.7038 7.65508 92.0926 7.39085 91.6138 7.48286C91.0817 7.58507 91.96 7.71272 91.9495 7.8114C92.3903 7.77423 93.3874 7.69098 93.8307 7.67651C94.0851 7.66831 93.8028 7.85193 94.8922 7.62081C95.1332 7.66172 95.3738 7.70266 95.614 7.74363C96.0462 7.65734 96.4983 7.57058 96.9384 7.4842C97.0229 7.54732 97.1073 7.61043 97.1917 7.67355C97.2399 7.6825 98.2591 7.50821 98.2028 7.46062C98.6224 7.57474 99.4585 7.57576 100.36 7.55954C100.446 7.5219 100.532 7.48427 100.618 7.44663C99.7475 7.54504 100.34 7.41604 100.078 7.35465C99.9237 7.31932 99.4736 7.25367 99.3051 7.19873ZM34.0037 9.30936C32.5541 9.51568 33.4514 9.35511 31.8804 9.40614C31.9928 9.48684 32.1052 9.56754 32.2176 9.64823C32.9844 9.46919 34.2585 9.53037 34.0052 9.30931C34.0047 9.30933 34.0042 9.30935 34.0037 9.30936ZM18.6292 10.0924C19.4588 10.0141 19.0363 9.8968 20.091 9.8201C20.0915 9.82008 20.092 9.82007 20.0925 9.82005C19.5458 9.82858 19.0007 9.83707 18.4556 9.84557C18.5135 9.92785 18.5713 10.0101 18.6292 10.0924ZM67.2616 8.44244C68.0618 8.45502 67.9026 8.39417 68.63 8.50343C69.7011 8.31236 68.7912 8.36207 68.7868 8.21786C68.5421 8.26752 68.2972 8.3172 68.052 8.3669C67.4503 8.24999 68.0151 8.16506 68.0147 8.15211C68.0142 8.15212 68.0137 8.15214 68.0132 8.15215C68.0119 8.10886 68.031 8.09917 67.8009 8.07988C67.6212 8.20073 67.4415 8.32158 67.2616 8.44244ZM70.6659 8.16226C70.3935 8.26622 70.2738 8.39284 70.9983 8.43277C70.9988 8.43275 70.9993 8.43274 70.9998 8.43272C71.0516 8.21695 71.7487 8.36918 72.063 8.34551C72.1448 8.31981 72.2267 8.2941 72.3085 8.2684C71.7622 8.23293 71.2147 8.19755 70.6659 8.16226ZM82.6909 7.6165C82.7006 7.85288 82.1007 7.89232 82.952 8.08637C83.1158 8.07752 83.2795 8.06868 83.4431 8.05985C83.5494 8.00492 83.6579 7.94994 83.7652 7.89499C85.8789 8.26416 86.4788 7.51799 82.9464 7.88968C82.9459 7.88985 82.9454 7.89003 82.9449 7.89021C82.8603 7.79897 82.7757 7.70774 82.6909 7.6165ZM79.0047 7.7415C78.9819 7.86638 78.959 7.99127 78.9362 8.11616C78.4684 7.82993 77.883 8.13272 76.9711 7.94771C76.8902 7.98783 76.8093 8.02795 76.7284 8.06807C76.3852 7.99473 73.0593 8.06821 73.786 8.23804C74.1021 8.31219 74.7801 8.17899 74.8386 8.17982C75.0395 8.18331 75.305 8.28228 75.6435 8.26621C75.8391 8.25677 76.2478 8.11941 76.646 8.10808C77.5401 8.08265 79.1539 8.37291 80.3272 8.02063C80.4127 8.05564 80.4982 8.09065 80.5837 8.12566C81.4523 8.07807 81.1591 7.96775 81.9694 8.08628C82.5137 7.4806 78.7187 8.20799 79.4981 7.70731C79.4976 7.70733 79.4971 7.70734 79.4966 7.70735C79.332 7.71875 79.1665 7.73017 79.0047 7.7415ZM55.1215 8.6365C55.0661 8.53224 54.0644 8.72704 54.293 8.46598C53.967 8.56459 53.6407 8.66321 53.3141 8.76186C53.3173 8.78537 53.3206 8.80888 53.3239 8.83239C53.6506 8.80359 53.9771 8.77482 54.3033 8.74606C54.3057 8.78344 54.3081 8.82081 54.3105 8.85819C54.7943 8.70754 56.8216 8.70347 56.7633 8.83796C56.8697 8.77864 56.9758 8.71933 57.0834 8.65998C58.0636 8.7821 58.8957 8.59419 59.9569 8.71037C60.0373 8.66149 60.1176 8.61261 60.198 8.56373C60.2524 8.59951 60.3068 8.63528 60.3612 8.67106C60.7458 8.66395 61.1299 8.65688 61.5136 8.64984C62.7676 8.46061 60.3215 8.34035 60.0283 8.3716C59.9892 8.3759 59.9983 8.47258 59.7534 8.49535C59.3224 8.53529 56.8609 8.51491 56.1171 8.60207C56.1086 8.53801 56.1001 8.47396 56.0916 8.4099C55.7686 8.48541 55.4452 8.56094 55.1215 8.6365ZM87.3623 7.73938C87.4188 7.80328 87.4754 7.86718 87.5319 7.93108C88.4839 7.83957 89.0889 7.88029 88.8376 7.67067C88.8371 7.67069 88.8366 7.6707 88.8361 7.67071C88.3462 7.6935 87.8453 7.71666 87.3623 7.73938ZM158.004 6.78826C157.976 6.6578 157.53 6.60253 156.948 6.68824C156.975 6.72636 157.003 6.76449 157.03 6.80261C157.336 6.69595 157.703 6.89346 158.658 6.88269C158.659 6.81727 158.66 6.75185 158.661 6.68643C158.444 6.72028 158.224 6.75422 158.004 6.78826ZM86.5447 7.73358C86.254 7.66443 85.4473 7.92094 85.9825 7.91766C86.3916 7.91505 86.7008 7.77072 86.5447 7.73358ZM15.3524 10.0739C15.5681 10.0804 15.7837 10.087 15.9993 10.0936C16.1095 10.0342 16.2198 9.97491 16.33 9.91558C16.3295 9.9156 16.329 9.91562 16.3285 9.91563C16.0032 9.96837 15.6779 10.0211 15.3524 10.0739ZM64.5356 8.53563C65.2642 8.50536 65.985 8.4754 66.7204 8.44507C66.7266 8.40857 66.7328 8.37208 66.739 8.33558C66.0084 8.49013 65.7126 8.35628 65.5427 8.35268C65.5435 8.35266 65.5442 8.35263 65.545 8.35261C64.9995 8.34038 64.4789 8.33503 63.9604 8.30741C64.1523 8.38347 64.344 8.45955 64.5356 8.53563ZM62.0263 8.38305C62.1572 8.63562 62.3203 8.66045 63.4364 8.44598C63.391 8.41577 63.3457 8.38557 63.3003 8.35536C62.7197 8.39195 62.3816 8.46153 62.4798 8.32472C62.3287 8.34416 62.1775 8.3636 62.0263 8.38305ZM73.4509 8.12187C73.3148 8.04418 72.2505 8.15761 72.3094 8.19705C72.3335 8.21267 73.7175 8.27414 73.4509 8.12187ZM166.075 6.9113C165.832 6.88504 165.585 6.85892 165.336 6.83293C165.669 6.81479 165.997 6.79691 166.321 6.77926C166.239 6.82326 166.157 6.86727 166.075 6.9113ZM168.768 6.63903C168.941 6.67851 168.368 6.88664 169.406 6.98691C168.645 6.9614 167.898 6.93893 167.13 6.91799C167.493 6.89288 167.849 6.86808 168.199 6.84357C168.141 6.77515 168.082 6.70674 168.023 6.63833C168.267 6.63816 168.513 6.6383 168.768 6.63903ZM169.575 6.83976C169.17 6.64693 171.323 6.72462 171.52 6.7572C171.565 6.76439 171.773 6.9072 171.85 6.93948C171.523 6.92401 171.194 6.90901 170.877 6.89507C170.983 6.94164 171.088 6.98824 171.192 7.03486C170.82 7.03225 170.441 7.02998 170.053 7.02807C170.22 6.99305 170.386 6.9581 170.55 6.92322C170.227 6.89499 169.887 6.86657 169.575 6.83976ZM160.945 6.62886C161.217 6.63867 161.479 6.64846 161.753 6.65873C161.699 6.59212 161.645 6.52553 161.594 6.45901C161.434 6.45564 161.274 6.45233 161.112 6.44907C161.057 6.509 161.001 6.56893 160.945 6.62886ZM166.49 6.68645C166.092 6.98874 165.025 6.2675 166.282 6.56115C166.408 6.59103 166.528 6.65721 166.49 6.68645ZM172.324 6.83348C173.176 6.6464 172.948 7.14222 172.176 6.95525C172.137 6.94542 172.261 6.84732 172.324 6.83348ZM178.633 7.21988C178.702 7.22711 178.809 7.39917 179.465 7.29591C179.572 7.3235 179.679 7.35111 179.784 7.37873C179.514 7.42925 177.389 7.31359 177.69 7.17429C178.025 7.19607 178.28 7.18756 178.633 7.21988ZM176.595 6.46431C176.259 6.4464 175.954 6.43132 175.626 6.41537C175.73 6.47339 175.833 6.53144 175.935 6.58951C175.777 6.59342 175.617 6.59739 175.455 6.60142C175.179 6.49556 174.923 6.39135 174.656 6.28694C175.346 6.31295 176.057 6.3432 176.769 6.37712C176.711 6.40618 176.653 6.43524 176.595 6.46431ZM167.983 5.90746C168.589 5.99377 169.374 5.9543 170.388 6.00866C170.389 6.00884 170.389 6.00902 170.39 6.00921C170.441 6.01215 170.528 6.08661 170.691 6.09654C170.817 6.1011 173.57 6.15847 173.35 6.26953C172.265 6.31994 171.908 6.14107 171.63 6.39427C171.58 6.33572 171.53 6.27718 171.48 6.21865C170.482 6.07547 170.154 6.25708 169.595 6.30549C169.599 6.2633 169.603 6.2211 169.607 6.17891C169.23 6.15944 168.846 6.14031 168.455 6.12154C168.509 6.1514 168.563 6.18127 168.617 6.21114C168.477 6.2059 168.344 6.20098 168.212 6.19615C167.893 6.05905 167.476 6.01522 167.983 5.90746ZM178.057 6.63717C178.379 6.33462 181.267 6.78873 182.599 6.86232C181.874 6.98317 180.825 6.75202 180.06 6.68561C178.582 6.5593 179.594 6.76195 179.34 6.7929C179.227 6.80902 178.387 6.53675 178.057 6.63717ZM165.698 5.88863C166.444 5.93709 166.835 5.87592 167.486 6.01602C167.431 6.03759 167.376 6.05917 167.322 6.08075C167.085 6.05017 165.332 5.92816 165.698 5.88863ZM184.53 7.15203C183.132 6.88235 183.794 7.24751 183.086 6.9537C183.568 6.98961 184.052 7.02797 184.539 7.06856C184.536 7.09638 184.533 7.12421 184.53 7.15203ZM84.8754 6.57197C84.2723 6.58143 83.5887 6.54201 83.2352 6.6731C83.642 6.68038 84.0591 6.68741 84.4697 6.69466C84.6051 6.65375 84.7403 6.61286 84.8754 6.57197ZM102.034 4.93628C101.896 4.91063 101.353 5.00973 101.295 5.01116C101.189 5.01381 101.217 4.9709 101.215 4.95992C100.515 4.98495 101.164 5.09973 100.646 5.14109C100.555 5.14802 99.3404 5.11372 98.8526 5.13144C98.0979 5.15871 97.3383 5.16971 97.0536 5.17928C96.5735 5.19529 95.6802 5.31659 94.9023 5.342C94.5796 5.35236 94.4647 5.27675 94.1393 5.28727C92.0397 5.3553 87.918 5.5749 86.0731 5.57643C85.6152 5.57671 85.1744 5.48601 84.9316 5.50117C84.741 5.54409 84.5501 5.58703 84.3591 5.62998C83.7602 5.30817 83.5642 5.6148 82.9376 5.66401C82.5376 5.69524 82.347 5.60032 82.2931 5.60209C81.9356 5.61417 81.7602 5.6669 81.479 5.68279C81.1634 5.70048 80.7071 5.66823 80.5939 5.67963C80.5241 5.68711 80.7519 5.81388 79.5189 5.84663C78.2675 5.87986 77.0431 5.90115 75.765 5.93216C76.2024 6.32197 76.5603 6.03605 77.0789 6.00633C77.2179 5.99836 77.1315 6.06478 77.2526 6.05845C77.5947 6.04092 78.2463 5.95931 78.5286 5.96642C78.8335 5.97406 78.7339 6.12506 79.1179 6.05938C79.1374 6.05601 79.0735 5.99666 79.1646 5.98379C80.0849 5.8562 80.39 5.95387 81.5498 5.92403C82.3085 5.9043 86.9898 5.71302 87.1408 5.74918C87.989 5.93978 83.0547 6.07813 82.4909 6.07764C82.2903 6.07736 82.4986 6.00393 82.3155 5.99614C82.2379 5.99315 81.5447 6.14154 80.853 6.17195C80.0145 6.20873 78.3319 6.16917 77.5399 6.19521C70.6977 6.41989 63.9427 6.54619 57.1022 6.75668C56.9551 6.76125 56.7666 6.84427 56.2932 6.85899C47.4323 7.13302 38.2402 7.36742 29.2596 7.69663C27.3044 7.76827 25.3638 7.90433 23.3865 7.91165C23.1435 7.97596 22.9005 8.04028 22.6574 8.1046C23.2825 8.03928 24.4337 8.129 24.5396 8.1274C24.5773 8.12673 24.8134 8.05546 25.1971 8.04627C25.7367 8.03311 25.9749 8.08041 26.0192 8.07897C26.1563 8.07466 26.0645 8.01906 26.1955 8.01506C27.1721 7.98566 27.9262 7.9444 28.8203 7.91467C29.8344 7.88104 30.3516 7.97334 31.085 7.82965C31.1699 7.87362 31.2549 7.91759 31.3399 7.96156C31.8829 7.74173 35.1642 7.65761 36.4929 7.62547C36.9119 7.61534 36.841 7.69972 36.9817 7.69517C37.0714 7.69218 37.0331 7.58592 38.1278 7.57173C38.6794 7.56467 38.8287 7.63816 39.1056 7.6267C39.2563 7.62036 39.2294 7.54359 39.4458 7.53662C40.6975 7.49636 41.7181 7.48881 42.9384 7.46416C43.2825 7.45711 43.2892 7.5217 43.3662 7.51839C43.6504 7.50641 44.1413 7.38098 44.8624 7.35828C46.0496 7.32096 48.4075 7.24654 49.3836 7.26903C49.5265 7.27241 49.6471 7.34635 49.7519 7.34191C49.9106 7.33491 49.9703 7.25192 49.9982 7.2506C50.5288 7.23246 50.212 7.31788 50.5666 7.28837C50.7577 7.27248 50.9544 7.17376 51.3984 7.14934C51.9845 7.1171 51.8724 7.23044 52.1169 7.21176C52.1429 7.20923 52.1474 7.13273 52.3891 7.12261C53.3086 7.08472 54.6379 7.02552 55.5026 6.99888C55.7511 6.99114 55.9374 7.03674 56.2835 7.02685C56.9795 7.00672 60.9636 6.851 61.283 6.87097C61.3176 6.87301 60.9681 6.99636 61.5304 6.97574C61.6934 6.92385 61.8564 6.87196 62.0192 6.82008C62.2963 6.88667 62.573 6.95327 62.8495 7.0199C62.8325 6.76103 64.4416 6.67197 64.4329 6.93748C64.6091 6.94287 64.7852 6.94827 64.9612 6.95368C65.3225 6.75949 65.5632 6.81983 66.2722 6.69076C66.385 6.74353 66.4977 6.79631 66.6104 6.84908C66.6371 6.81082 66.664 6.77256 66.6907 6.73431C67.0768 6.92561 67.6924 6.70332 67.7677 6.69993C68.0577 6.68671 68.277 6.73173 68.4128 6.72599C68.9213 6.70538 70.0115 6.60173 70.6063 6.61701C70.6343 6.61787 70.6094 6.70537 70.7793 6.71103C71.0857 6.72127 71.1118 6.59348 71.5234 6.73046C71.6045 6.6906 71.6855 6.65075 71.7666 6.6109C71.8543 6.62768 71.942 6.64446 72.0297 6.66124C72.5435 6.63611 73.0562 6.61105 73.5678 6.58607C73.1063 6.74654 73.6452 6.8127 74.1473 6.68238C74.3172 6.6382 74.1628 6.55331 74.2195 6.53811C74.2904 6.51763 76.6088 6.4955 76.7604 6.54898C76.8687 6.51767 76.9769 6.48636 77.0851 6.45506C77.1418 6.50975 77.1986 6.56444 77.2553 6.61914C77.3148 6.59771 77.3743 6.57629 77.4338 6.55486C78.0361 6.63662 79.5764 6.36476 79.8654 6.37451C80.0169 6.37977 79.8883 6.62355 80.612 6.57838C80.6352 6.51177 80.6585 6.44517 80.6817 6.37856C80.8472 6.3644 81.0126 6.35025 81.1778 6.33611C81.4886 6.33315 81.9428 6.43457 81.9594 6.51225C82.0549 6.46266 82.1502 6.41307 82.2456 6.36348C82.5091 6.50878 83.8914 6.41571 84.4535 6.30337C84.6189 6.34483 84.7841 6.38629 84.9491 6.42777C85.1676 6.36567 85.3858 6.30359 85.6037 6.24153C86.1116 6.21057 85.5772 6.31851 85.6857 6.32327C85.9161 6.33291 87.0761 6.14359 87.0045 6.34151C87.163 6.33764 87.3214 6.33377 87.4797 6.32991C87.5598 6.2717 87.6383 6.21353 87.7201 6.15528C88.001 6.34069 88.4769 6.25944 89.4513 6.30343C89.5316 6.2568 89.6119 6.21017 89.6922 6.16355C89.9942 6.21854 90.2957 6.27357 90.5966 6.32863C90.6561 6.25344 90.7155 6.17825 90.7749 6.10306C90.9047 6.08898 91.0343 6.07492 91.1639 6.06086C91.4323 6.2185 91.899 6.02788 92.1477 6.08925C92.5078 6.17889 92.2304 6.30449 91.5766 6.34481C91.6226 6.46357 93.5953 6.35597 94.0421 6.33556C94.0117 6.31292 93.9813 6.29027 93.9509 6.26763C93.4901 6.29831 93.028 6.3291 92.5646 6.35998C92.1679 6.06859 93.43 6.11602 94.0026 6.0621C94.0549 6.057 94.3502 5.93482 94.9274 5.9304C95.1522 5.92873 96.0214 6.07332 96.195 6.07815C97.5546 6.11942 96.5522 5.9063 97.8805 6.08172C97.6009 5.92846 98.3643 6.0422 99.1483 5.9914C99.2801 5.98274 100.415 5.82423 100.495 5.81888C100.977 5.786 100.456 5.94075 101.153 5.88653C101.235 5.84719 101.318 5.80786 101.401 5.76853C101.563 5.76452 101.725 5.76052 101.886 5.75654C102.875 6.06448 103.094 5.81456 103.439 5.77474C103.579 5.75867 103.401 5.84966 103.763 5.82259C103.898 5.81249 104.053 5.73663 104.425 5.72261C105.59 5.67894 105.99 5.97821 107.041 5.63235C107.204 5.6751 107.367 5.71787 107.53 5.76065C107.638 5.70232 107.747 5.64394 107.858 5.58555C108.712 5.72788 108.401 5.56912 108.708 5.56405C109.519 5.55046 111.156 5.5457 111.299 5.6762C111.989 5.35403 112.836 5.6819 113.108 5.66408C113.27 5.62331 113.432 5.58256 113.593 5.54183C113.785 5.57517 113.976 5.60854 114.167 5.64194C114.069 5.34261 115.057 5.61816 115.151 5.62076C115.264 5.62283 116.797 5.50204 117.36 5.49253C117.927 5.4828 118.898 5.54543 118.994 5.54375C119.095 5.54176 120.067 5.44103 120.818 5.42788C121.459 5.41581 125.393 5.46333 125.131 5.33412C124.878 5.30117 124.516 5.27506 124.202 5.263C123.211 5.22468 117.493 5.26396 116.024 5.2745C113.088 5.29225 110.03 5.36775 107.069 5.40753C106.896 5.40986 106.868 5.3324 106.72 5.33411C106.495 5.33711 105.925 5.42873 105.702 5.43234C104.873 5.44518 103.837 5.45738 103.404 5.46594C102.416 5.48599 101.731 5.45583 100.974 5.467C100.737 5.47062 99.5402 5.59734 98.7297 5.57706C98.5816 5.55884 98.4334 5.54062 98.285 5.52242C98.7081 5.48597 99.7923 5.39223 100.316 5.37157C101.084 5.34139 101.484 5.39491 101.766 5.38685C102.003 5.38012 103.203 5.27856 103.745 5.26378C103.914 5.25913 103.954 5.3401 104.101 5.33628C104.9 5.31503 105.943 5.28806 106.624 5.1918C106.347 5.22443 108.082 5.23426 108.183 5.23176C108.342 5.22809 108.512 5.14752 108.835 5.14015C109.454 5.12609 109.38 5.28807 110.146 5.11046C110.338 5.15289 110.529 5.19534 110.719 5.23781C110.715 5.02412 113.156 5.26101 113.83 4.98734C113.856 4.95712 110.693 4.94283 110.449 4.94446C108.899 4.95332 106.598 5.059 105.09 5.05761C104.634 5.05715 103.199 4.96197 103.096 4.96694C102.924 4.9748 103.082 5.04525 103.007 5.0497C101.48 5.14227 102.238 4.97448 102.034 4.93628ZM169.614 5.82884C169.16 5.80168 168.675 5.77426 168.22 5.7489C168.255 5.70327 168.29 5.65764 168.324 5.61201C168.529 5.63775 168.755 5.66448 168.966 5.69088C169.132 5.66926 169.297 5.64771 169.46 5.62623C169.512 5.69376 169.563 5.7613 169.614 5.82884ZM170.769 5.68115C171.171 5.67528 171.183 5.775 171.274 5.78395C171.55 5.8112 171.801 5.783 172.069 5.79732C171.746 6.01663 171.087 5.87845 170.769 5.68115ZM162.444 5.32554C162.54 5.33898 163.123 5.60498 163.828 5.38784C164.354 5.47605 164.856 5.56452 165.369 5.65422C164.513 5.51464 163.267 5.60199 162.854 5.58804C162.692 5.5825 162.662 5.50422 162.532 5.49995C161.767 5.47615 161.046 5.63771 160.973 5.37921C161.668 5.46763 162.33 5.30912 162.444 5.32554ZM166.971 5.54235C167.092 5.60009 167.213 5.65788 167.333 5.71569C166.884 5.70044 166.469 5.68702 166.032 5.67357C166.151 5.62285 166.27 5.57217 166.388 5.52152C166.584 5.52837 166.771 5.53508 166.971 5.54235ZM133.5 5.16966C133.769 5.16709 134.037 5.16461 134.303 5.16222C134.288 5.12323 133.983 5.1269 133.87 5.1018C133.87 5.1018 133.871 5.10179 133.871 5.10179C133.745 5.0734 133.798 5.02235 133.569 5.00282C133.546 5.05843 133.523 5.11405 133.5 5.16966ZM22.3265 7.9474C21.877 7.95928 17.7156 8.09586 18.0759 8.22686C18.2568 8.29224 19.6755 8.18335 20.0963 8.17065C20.6624 8.15347 22.1943 8.25762 22.3265 7.9474ZM14.9594 8.162C14.8924 8.30653 17.4932 8.24344 17.7459 8.21037C17.6913 8.19187 17.6067 8.14948 17.5345 8.14161C17.1826 8.10413 15.5217 8.18235 14.9594 8.162ZM118.436 5.00281C118.643 5.07069 118.857 5.13848 119.07 5.20628C119.013 5.1138 118.955 5.02131 118.897 4.92884C118.74 4.95355 118.589 4.97817 118.436 5.00281ZM98.1179 5.57014C94.6086 5.655 91.1486 5.74243 87.6364 5.83423C87.9446 5.78686 88.2527 5.73951 88.56 5.69221C91.5722 5.62379 94.7663 5.57856 97.6835 5.44398C97.8284 5.48603 97.9732 5.52808 98.1179 5.57014ZM161.465 4.88277C160.59 4.86327 159.811 4.91761 158.859 4.79292C159.774 4.70183 160.249 4.87436 161.145 4.73607C161.146 4.73608 161.146 4.73609 161.147 4.7361C161.253 4.78497 161.359 4.83386 161.465 4.88277ZM141.505 4.73514C141.78 4.66819 142.053 4.60135 142.325 4.53462C141.998 4.53619 141.668 4.53791 141.336 4.5398C141.392 4.60491 141.448 4.67002 141.505 4.73514ZM67.6566 6.06042C66.7198 6.23137 64.325 6.04531 63.5694 6.24029C63.5206 6.25306 63.975 6.31174 63.2482 6.4743C63.7998 6.42873 64.1879 6.3876 64.2257 6.27601C64.3906 6.30845 64.5553 6.34089 64.72 6.37335C64.9904 6.33681 65.2605 6.30028 65.5304 6.26378C65.5043 6.37453 65.5258 6.36801 65.9391 6.28024C66.1314 6.30227 66.3237 6.3243 66.5158 6.34635C66.5955 6.29738 66.6751 6.24841 66.7547 6.19944C66.9222 6.25952 67.0895 6.31961 67.2568 6.37971C67.8987 6.28973 67.5026 6.17545 67.6566 6.06042ZM70.9288 5.98949C70.7692 5.9698 66.4481 6.17824 68.4223 6.33834C68.934 6.316 69.4448 6.29372 69.9545 6.27153C69.5203 5.92133 70.9232 6.20428 71.0411 6.20842C71.5933 6.22748 72.291 6.12049 72.689 6.11323C73.0314 6.10707 73.2363 6.16618 73.4764 6.15744C74.2919 6.12778 75.5892 6.08752 75.765 5.93216C75.1237 5.94772 74.4757 5.96506 73.8166 5.98819C73.1176 6.01269 72.499 5.88905 71.1829 6.12263C70.8552 6.11145 70.9684 5.99452 70.9288 5.98949ZM143.139 4.54618C143.097 4.69691 144.767 4.6554 144.777 4.59609C144.78 4.5611 144.237 4.56337 144.158 4.55041C144.158 4.55041 144.157 4.55041 144.157 4.55041C144.124 4.54472 144.289 4.48647 144.032 4.47121C143.724 4.4961 143.434 4.52107 143.139 4.54618ZM28.7817 7.39858C28.5595 7.32102 23.443 7.51886 23.2969 7.56431C23.2564 7.5769 23.3146 7.61215 23.2992 7.6341C24.4849 7.4757 26.1904 7.56131 27.3205 7.53373C27.6359 7.52594 27.5397 7.46908 27.5575 7.46736C27.5582 7.46734 27.559 7.46731 27.5597 7.46729C27.7387 7.46129 28.5506 7.58139 28.7817 7.39858ZM61.9311 6.3592C62.15 6.37611 62.3687 6.39303 62.5873 6.40996C62.6411 6.36158 62.695 6.31321 62.7488 6.26483C62.7483 6.26484 62.7478 6.26486 62.7473 6.26488C62.4755 6.2963 62.2034 6.32774 61.9311 6.3592ZM54.4006 6.43826C54.4545 6.46947 54.5084 6.50067 54.5623 6.53188C55.1096 6.51936 55.6561 6.50689 56.2016 6.49448C56.1472 6.51474 56.0928 6.53499 56.0384 6.55525C56.8635 6.57921 57.2046 6.45305 57.6473 6.45596C57.6468 6.45598 57.6463 6.45599 57.6458 6.45601C57.6935 6.45647 57.7532 6.52315 57.9301 6.51999C58.3362 6.51276 59.4966 6.50244 59.6341 6.42926C59.9267 6.27307 57.5947 6.41491 57.156 6.42185C56.958 6.4249 56.7204 6.3723 56.6014 6.37459C56.4709 6.37733 56.2956 6.46376 55.9773 6.47117C55.8844 6.47321 54.848 6.41021 54.4006 6.43826ZM44.7457 6.84124C44.917 6.90994 45.267 6.82716 45.3968 6.83515C45.4278 6.83703 45.1893 6.90669 45.4814 6.916C45.5625 6.87108 45.6436 6.82616 45.7246 6.78124C45.3986 6.80123 45.0722 6.82123 44.7457 6.84124ZM145.919 4.46755C145.873 4.4516 144.99 4.45895 144.946 4.46924C144.416 4.60549 146.248 4.58747 145.919 4.46755ZM168.348 4.64155C167.955 4.42361 172.793 4.82031 173.262 4.84501C173.228 4.96644 172.087 4.78462 172.675 4.98398C172.117 4.86122 170.52 4.83838 170.137 4.79628C169.902 4.7701 169.858 4.66156 169.823 4.65671C169.7 4.63908 168.485 4.71538 168.348 4.64155ZM177.256 5.17134C176.806 5.11651 176.332 5.06164 175.883 5.00984C176.413 5.02923 176.981 5.05314 177.508 5.07642C177.423 5.10795 177.34 5.13968 177.256 5.17134ZM177.84 5.15647C177.837 5.03491 179.383 5.24341 179.799 5.25208C179.316 5.41626 178.561 5.16386 177.84 5.15647ZM151.82 4.17065C151.089 4.08752 150.769 4.45116 151.663 4.29674C151.69 4.29163 151.85 4.17502 151.82 4.17065ZM67.4182 5.5537C67.2967 5.55507 65.7542 5.48319 65.672 5.54435C65.3977 5.73972 66.3989 5.63441 66.7395 5.6948C67.2867 5.79278 66.4907 5.91104 67.8146 5.80215C67.7615 5.84119 67.7084 5.88024 67.6554 5.91929C68.4311 5.90838 68.1693 5.65682 68.3074 5.61932C68.3498 5.6079 68.8343 5.6152 68.9209 5.59605C70.0044 5.35462 67.5343 5.55188 67.4182 5.5537ZM133.969 4.21145C132.535 4.11866 133.14 4.27242 131.671 4.2815C131.606 4.36431 133.792 4.28524 133.969 4.21145ZM81.3987 5.29234C79.9142 5.36691 78.685 5.29452 77.311 5.4789C77.4031 5.69864 81.7866 5.33857 81.3987 5.29234ZM11.6539 7.2584C17.4413 7.46388 24.0977 7.11416 30.2454 6.90778C30.9159 6.88538 30.9829 6.97152 31.2251 6.95405C31.3837 6.94268 31.3536 6.87253 31.5646 6.86533C39.1926 6.60576 46.4914 6.27866 53.8052 6.09244C54.2679 6.08074 56.5073 6.16371 56.9771 5.91887C57.3316 5.73313 55.7329 5.91902 55.4647 5.92584C55.2635 5.93098 55.2523 5.84922 55.1182 5.85311C54.9757 5.85727 55.0952 5.90965 54.9298 5.91565C54.2294 5.94144 53.4625 5.9435 52.8265 5.96823C46.6106 6.20908 40.5626 6.38955 34.3784 6.58201C33.6283 6.60547 33.7802 6.53475 33.7425 6.53569C33.742 6.53587 33.7415 6.53605 33.741 6.53623C29.7341 6.65994 25.1446 6.95754 20.8975 7.04072C17.901 7.09391 14.9056 7.1474 11.9124 7.20101C11.8262 7.22014 11.7401 7.23927 11.6539 7.2584ZM70.5901 5.69084C70.2058 5.45419 70.1356 5.70636 68.7947 5.64526C68.6871 5.69082 68.5795 5.73638 68.4718 5.78194C69.1806 5.75141 69.883 5.72115 70.5923 5.69077C70.5916 5.6908 70.5908 5.69082 70.5901 5.69084ZM61.7369 5.86786C61.4968 5.54004 58.5202 5.86837 57.1593 5.84679C56.9169 6.02256 58.8819 5.8861 59.3437 5.88963C59.5762 5.89119 60.8122 6.0262 61.7508 5.90163C61.7461 5.89037 61.7415 5.87911 61.7369 5.86786ZM163.288 3.99598C163.073 4.0005 162.856 4.00513 162.638 4.00985C163.181 4.05952 163.719 4.10991 164.273 4.16175C163.377 4.11407 162.547 4.07051 161.652 4.02764C161.813 3.96153 161.985 3.89572 162.15 3.82985C162.535 3.88492 162.914 3.9403 163.288 3.99598ZM160.464 3.9707C161.989 3.97432 160.401 4.12887 160.009 4.03946C159.778 3.98568 160.308 3.9705 160.464 3.9707ZM156.498 3.78988C157.211 3.67605 158.645 3.68905 158.13 3.92515C157.351 3.79972 156.886 3.88799 155.745 3.80947C155.912 3.7646 156.078 3.71978 156.244 3.67502C156.245 3.67502 156.245 3.67503 156.246 3.67504C156.33 3.71331 156.414 3.75159 156.498 3.78988ZM161.164 3.83686C162.159 3.99635 159.261 3.89251 160.176 3.81786C160.222 3.81429 161.127 3.83059 161.164 3.83686ZM18.0288 6.79604C17.9113 6.87958 18.6785 6.85284 18.9337 6.84979C20.0418 6.83701 21.4631 6.75563 22.6138 6.72887C22.5263 6.70552 22.4387 6.68217 22.3512 6.65883C20.9121 6.70443 19.4663 6.75034 18.0288 6.79604ZM26.2166 6.61132C27.008 6.58544 27.7985 6.55961 28.5883 6.53385C28.6617 6.53145 29.0051 6.45188 28.7476 6.44365C27.9049 6.49947 27.0612 6.55536 26.2166 6.61132ZM75.5743 5.06628C74.9641 5.03945 76.7107 4.75991 76.6381 5.007C76.2841 5.02672 75.9295 5.04648 75.5743 5.06628ZM81.2209 4.806C80.8409 4.84008 80.4603 4.8742 80.079 4.90838C80.0776 4.88025 80.0764 4.85212 80.075 4.82399C80.4577 4.81794 80.8396 4.81194 81.2209 4.806ZM14.9159 6.84245C15.3225 6.92544 16.284 6.8789 16.8835 6.86112C16.4679 6.79198 15.4846 6.86512 14.9159 6.84245ZM66.4794 5.2376C66.5254 5.30184 64.1207 5.35816 64.9498 5.21744C65.4588 5.22415 65.9648 5.23099 66.4794 5.2376ZM61.5725 5.28963C62.0922 5.25933 62.4948 5.2696 62.3912 5.37595C62.1157 5.37997 61.8401 5.38401 61.5642 5.38807C61.5669 5.35526 61.5697 5.32244 61.5725 5.28963ZM153.784 3.56602C152.91 3.56813 152.052 3.57189 151.159 3.57691C151.191 3.54891 151.223 3.5209 151.256 3.49291C152.121 3.48802 152.943 3.48426 153.788 3.48207C153.786 3.51005 153.785 3.53803 153.784 3.56602ZM14.4139 6.60595C13.8161 6.64408 13.2181 6.68222 12.6198 6.72038C13.2198 6.71945 13.8195 6.71855 14.4191 6.71765C14.4178 6.68024 14.4166 6.64283 14.4154 6.60541C14.4149 6.60559 14.4144 6.60577 14.4139 6.60595ZM165.766 3.41797C163.098 3.21036 166.519 3.16736 167.208 3.3865C167.209 3.38637 167.21 3.38623 167.21 3.38609C167.273 3.40524 167.137 3.48322 167.241 3.51999C166.96 3.47326 166.701 3.42756 166.431 3.38176C166.184 3.42036 165.934 3.4591 165.681 3.49799C165.599 3.47731 165.517 3.45664 165.434 3.43599C165.545 3.42996 165.656 3.42395 165.766 3.41797ZM176.552 3.84007C178.972 4.02184 176.487 4.05205 175.291 3.81928C175.306 3.78192 176.335 3.82365 176.552 3.84007ZM170.198 3.54729C169.809 3.54974 169.443 3.55376 169.055 3.55751C169.006 3.53203 168.958 3.50656 168.91 3.4811C169.207 3.469 169.501 3.45711 169.79 3.44542C169.924 3.47922 170.056 3.51301 170.198 3.54729ZM157.648 2.85077C157.047 2.81681 156.254 3.06774 158.224 3.02658C158.224 2.99841 158.223 2.97024 158.223 2.94208C158.143 2.94537 157.907 2.96836 157.894 2.96608C157.859 2.95853 157.898 2.86502 157.648 2.85077ZM181.113 3.44809C181.187 3.44425 181.235 3.149 181.941 3.52373C182.161 3.52571 182.373 3.5273 182.599 3.53075C182.65 3.60146 182.7 3.67216 182.75 3.74286C181.904 3.60853 181.813 3.73482 181.748 3.73121C181.463 3.71714 181.68 3.66888 181.496 3.65092C181.041 3.60593 179.968 3.5606 180.465 3.40799C180.636 3.35262 181.047 3.45278 181.113 3.44809ZM179.475 3.13977C179.575 3.17255 179.242 3.23316 179.316 3.26373C179.376 3.28921 180.394 3.46232 180.104 3.58568C179.939 3.5656 179.766 3.54518 179.601 3.52557C179.549 3.48103 179.496 3.43649 179.444 3.39196C179.282 3.4162 179.118 3.4405 178.951 3.46484C178.677 3.34398 178.119 3.17329 178.809 3.14437C178.55 3.133 178.309 3.12351 178.051 3.11327C177.916 3.15108 177.779 3.18893 177.642 3.22683C177.717 3.15957 177.792 3.09232 177.867 3.02509C178.407 3.06139 178.942 3.09951 179.475 3.13977ZM187.307 3.97098C187.27 4.00419 187.236 4.03771 187.201 4.07114C188.138 4.11395 189.586 4.28518 188.736 4.40722C187.822 4.29955 186.906 4.20154 185.995 4.10889C185.661 4.07512 185.307 4.0398 184.97 4.00728C184.89 3.96993 184.809 3.93256 184.727 3.89516C185.573 4.09003 185.452 3.69518 186.031 3.80039C186.086 3.81029 186.146 3.82438 186.214 3.84351C186.348 3.88222 185.933 3.99478 186.805 3.99523C186.778 3.95415 186.751 3.91307 186.725 3.87198C186.923 3.90519 187.114 3.93786 187.307 3.97098ZM195.453 5.51387C193.785 4.97384 195.681 5.36618 195.958 5.59701C195.957 5.59683 195.957 5.59665 195.956 5.59647C196.697 6.17644 194.935 5.42425 194.82 5.41646C194.668 5.37852 194.275 5.49384 193.554 5.00032C194.181 5.14384 194.816 5.31048 195.453 5.51387ZM190.106 4.34574C190.242 4.35838 190.159 4.40326 190.217 4.41102C190.218 4.41109 190.218 4.41117 190.219 4.41124C191.071 4.51338 193.157 4.84228 193.352 5.08494C192.685 4.93075 189.833 4.5194 189.684 4.38442C189.824 4.37119 189.962 4.35781 190.106 4.34574ZM184.106 3.73786C183.593 3.5641 184.77 3.67451 185.076 3.76517C185.134 3.78364 184.632 3.91735 184.106 3.73786ZM144.11 2.05501C142.946 2.12985 144.475 2.19569 143.946 2.30845C144.169 2.29829 144.39 2.28821 144.61 2.27821C144.444 2.20377 144.277 2.12937 144.11 2.05501ZM91.9738 2.7808C91.705 2.77484 91.834 2.83921 91.8107 2.84083C91.6341 2.84366 91.471 2.79278 91.404 2.80042C90.1731 2.94496 90.9953 2.97985 91.0082 2.99274C91.036 3.05907 90.7137 3.14622 91.1652 3.21076C91.438 3.17968 91.7062 3.14873 91.9843 3.11754C92.1225 3.15114 92.2606 3.18475 92.3985 3.21836C92.9444 3.12386 92.2268 3.12099 92.1424 3.0171C92.1099 2.97625 92.6248 2.91258 91.9738 2.7808ZM142.063 1.83869C141.878 1.9574 141.419 2.10846 141.871 2.22443C141.871 2.22443 141.872 2.22442 141.872 2.22442C141.956 2.24563 142.293 2.25586 142.396 2.28579C143.129 2.12559 142.85 1.96446 142.063 1.83869ZM96.8948 2.44084C97.3399 2.45691 97.7835 2.47308 98.2258 2.48934C98.2201 2.56015 98.2144 2.63095 98.2087 2.70176C97.9719 2.68873 97.7347 2.67574 97.4971 2.66277C97.4148 2.69711 97.3324 2.73146 97.25 2.76581C97.5468 2.83879 97.8429 2.91181 98.1385 2.98488C98.4914 2.94773 98.8433 2.91064 99.1945 2.87362C99.0318 2.84044 98.869 2.80727 98.7059 2.77412C99.5677 2.71117 99.377 2.88781 100.099 2.93538C100.345 2.86378 100.59 2.79221 100.835 2.72068C101.194 2.77754 101.551 2.83447 101.908 2.89147C102.503 2.84611 102.554 2.7948 102.151 2.72968C102.445 2.63677 102.772 2.76355 103.126 2.72001C103.155 2.71649 103.098 2.63717 103.124 2.63557C104.965 2.53655 104.883 2.75076 105.177 2.75272C105.386 2.7539 106.214 2.59133 106.225 2.54231C106.238 2.47633 104.512 2.25766 107.206 2.18773C105.815 2.04079 104.216 2.26168 105.256 2.49979C104.809 2.48382 102.853 2.59672 102.733 2.59186C102.552 2.58437 102.613 2.48311 102.386 2.48605C102.252 2.48796 101.904 2.72444 100.831 2.55179C100.695 2.59261 100.559 2.63344 100.423 2.67428C100.294 2.64673 100.165 2.61919 100.036 2.59165C100.298 2.47536 100.559 2.35911 100.82 2.24289C99.771 2.3882 98.9181 2.18579 98.2894 2.39053C97.7429 2.38246 97.4755 2.36761 97.7085 2.26516C97.5441 2.26936 97.3795 2.27357 97.2148 2.27779C97.1082 2.33214 97.0016 2.38649 96.8948 2.44084ZM138.697 2.02906C138.142 1.92398 137.949 2.16203 138.034 2.17466C138.517 2.24406 138.984 2.08378 138.697 2.02906ZM92.9697 2.87985C93.5732 2.92476 94.1744 2.96983 94.7733 3.01506C94.7714 2.94038 94.7694 2.8657 94.7674 2.79102C94.1705 2.82047 93.5713 2.85008 92.9697 2.87985ZM144.279 1.88655C144.335 1.94237 144.391 1.9982 144.447 2.05404C145.111 1.84769 145.758 2.14017 146.077 2.07925C146.147 2.06594 146.007 1.96722 145.874 1.94619C145.795 1.9328 144.401 1.86706 144.279 1.88655ZM171.736 2.37738C171.477 2.40293 171.244 2.42999 170.995 2.45662C171.011 2.39429 171.028 2.33197 171.044 2.26964C171.165 2.2633 171.286 2.25698 171.405 2.25071C171.51 2.29262 171.625 2.33506 171.736 2.37738ZM168.931 2.35906C168.474 2.33662 168.063 2.31673 167.617 2.29628C169.286 2.29791 167.906 2.21989 168.938 2.17609C168.936 2.23708 168.933 2.29807 168.931 2.35906ZM164.496 2.08843C164.551 2.0523 164.606 2.01617 164.66 1.98005C165.094 1.99189 165.531 2.00443 165.977 2.01797C165.705 1.87912 165.411 1.73993 165.15 1.60193C164.992 1.59712 164.833 1.59237 164.673 1.58768C164.614 1.75459 164.555 1.9215 164.496 2.08843ZM80.1774 2.82618C79.9131 2.83145 78.9923 2.97196 79.0334 3.01279C79.4184 3.05336 79.8037 3.09394 80.1877 3.13459C80.1873 3.0597 80.187 2.98482 80.1866 2.90993C80.2417 2.94564 80.2969 2.98135 80.352 3.01707C80.5687 2.98288 80.7852 2.94871 81.0014 2.91455C81.1127 2.97685 81.2239 3.03914 81.335 3.10144C81.4427 3.02365 81.5503 2.94586 81.6578 2.86808C80.6077 2.76537 80.6462 2.89677 80.428 2.90158C80.3171 2.9041 80.2457 2.85977 80.2057 2.83758C80.1962 2.83378 80.1868 2.82998 80.1774 2.82618ZM93.3727 2.39248C92.1171 2.40707 91.404 2.62336 90.5013 2.48276C91.0766 2.8182 94.8366 2.35556 96.1532 2.6148C96.29 2.55493 96.4267 2.49507 96.5632 2.43522C95.8373 2.5041 95.342 2.40099 94.9923 2.39342C94.7147 2.38742 94.7451 2.44566 94.7239 2.44537C94.7229 2.4454 94.7219 2.44542 94.7209 2.44545C94.0703 2.43824 93.8668 2.38678 93.3727 2.39248ZM145.213 1.60889C144.878 1.52052 144.283 1.53105 144.276 1.66097C144.608 1.69761 144.938 1.73441 145.265 1.77139C145.197 1.73826 145.27 1.624 145.213 1.60889ZM163.992 1.71223C163.718 1.66277 163.108 1.68496 163.369 1.80353C163.41 1.82436 164.042 1.76143 163.667 1.95451C164.282 1.96702 164.142 1.74048 163.992 1.71223ZM114.75 2.14655C114.968 2.13825 115.19 2.12988 115.413 2.1215C115.464 2.06803 115.515 2.01455 115.566 1.96108C115.292 2.0229 115.016 2.08482 114.75 2.14655ZM148.055 1.51773C148.348 1.77453 148.836 1.52561 149.402 1.73798C149.609 1.74015 149.814 1.74239 150.018 1.7447C150.018 1.7447 150.019 1.7447 150.019 1.7447C150.025 1.67474 150.031 1.60477 150.037 1.53481C149.377 1.52835 148.7 1.52265 148.055 1.51773ZM100.987 2.33691C101.125 2.36606 101.262 2.39522 101.399 2.4244C101.641 2.38049 101.882 2.33661 102.122 2.29277C101.991 2.2688 101.859 2.24485 101.728 2.22091C101.481 2.25954 101.235 2.29821 100.987 2.33691ZM151.638 1.5071C150.91 1.47125 150.65 1.69305 151.567 1.69813C151.957 1.70021 152.394 1.54491 151.638 1.5071ZM66.5904 3.30863C66.8356 3.32029 67.0806 3.33196 67.3253 3.34365C67.4071 3.29429 67.4888 3.24494 67.5705 3.19559C67.2442 3.23324 66.9175 3.27092 66.5904 3.30863ZM167.385 1.8384C167.354 1.88426 167.323 1.93012 167.292 1.97598C167.067 1.95898 166.853 1.94252 166.638 1.92621C166.694 1.88142 166.75 1.83664 166.805 1.79186C166.99 1.80696 167.191 1.8227 167.385 1.8384ZM68.2338 3.28803C68.4288 3.29114 68.6236 3.29425 68.8183 3.29738C68.9482 3.2707 69.0781 3.24402 69.2079 3.21734C69.0255 3.20016 68.843 3.18299 68.6603 3.16582C68.5182 3.20655 68.376 3.24729 68.2338 3.28803ZM158.409 1.59663C158.126 1.53578 157.032 1.69609 158.018 1.75488C158.657 1.7928 158.45 1.60588 158.409 1.59663ZM159.884 1.56473C158.858 1.43992 159.605 1.99633 160.881 1.6678C159.615 1.69211 159.944 1.5725 159.884 1.56473ZM169.124 1.5358C169.151 1.53712 169.17 1.61623 169.381 1.62741C170.124 1.66637 171.149 1.74184 171.681 1.77166C172.99 1.835 177.002 1.93174 177.467 2.19992C177.56 2.25412 177.329 2.38068 177.367 2.39072C177.476 2.41839 178.16 2.39813 178.027 2.4937C177.366 2.44505 176.697 2.39911 176.054 2.35769C176.219 2.29412 176.384 2.23062 176.546 2.16719C174.912 2.10269 175.446 2.13357 174.971 2.2659C174.701 2.18759 174.42 2.10919 174.143 2.03148C173.555 2.06169 172.919 2.09149 172.33 2.12563C172.469 2.08559 172.606 2.04561 172.743 2.00567C171.848 1.87495 172.092 1.94402 171.583 2.0335C171.584 1.98679 171.585 1.94008 171.586 1.89337C170.718 1.96768 170.544 1.82109 170.351 1.81103C169.95 1.79183 169.437 2.3217 167.962 1.71864C167.323 1.96091 167.349 1.4237 166.965 1.68471C165.915 1.35288 167.947 1.52519 168.904 1.57282C168.904 1.57284 168.905 1.57286 168.905 1.57288C168.979 1.57653 168.864 1.52194 169.124 1.5358ZM163.616 1.63674C164.262 1.4092 161.73 1.32642 162.562 1.69655C162.688 1.71082 162.813 1.72512 162.938 1.73946C163.166 1.70512 163.392 1.67086 163.617 1.63678C163.617 1.63677 163.616 1.63675 163.616 1.63674ZM139.68 1.31949C137.308 1.43738 138.662 1.56649 139.462 1.42409C139.622 1.39588 139.708 1.35818 139.68 1.31949ZM91.5732 2.25372C91.5399 2.28376 91.5066 2.31379 91.4733 2.34383C92.2621 2.29538 93.799 2.36719 93.7708 2.17146C93.0417 2.19864 92.305 2.22617 91.5732 2.25372ZM97.819 1.96195C97.6496 1.95441 96.9548 1.94425 97.0404 2.01559C97.3428 2.05992 97.6445 2.1043 97.9457 2.14872C98.0845 2.11262 98.2232 2.07653 98.3617 2.04045C98.1668 2.03432 97.865 1.96388 97.819 1.96195Z" fill="#FF004C"/>
</svg>
